<svg xmlns="http://www.w3.org/2000/svg" width="1024" height="1024" fill-rule="evenodd" clip-rule="evenodd" image-rendering="optimizeQuality" shape-rendering="geometricPrecision" text-rendering="geometricPrecision"><path style="fill:#4d4d4d" d="M794.78 388.57c49.375 72.98 73.347 141.274 76.658 193.612 1.892 29.915-2.967 54.46-12.829 71.832-9.861 17.372-24.233 27.937-44.136 31.318-41.84 7.107-68.387-9.042-89.143-36.734-19.97-26.643-32.904-64.385-42.043-99.608a72.49 72.49 0 0 0 12.397-40.543 72.49 72.49 0 0 0-1.37-14.023 105.735 105.735 0 0 0 100.467-105.606 105.735 105.735 0 0 0 0-.248zM241.346 391.57a105.735 105.735 0 0 0 102.427 102.934 72.49 72.49 0 0 0-1.154 12.887 72.49 72.49 0 0 0 12.734 41.037c-9.135 35.14-22.053 72.748-41.968 99.318-20.756 27.693-47.303 43.842-89.143 36.734-19.903-3.38-34.275-13.946-44.137-31.318-9.861-17.372-14.72-41.917-12.828-71.832 3.252-51.415 26.442-118.23 74.069-189.76zM628.896 301.86a105.735 105.735 0 0 0-45.586 86.958 105.735 105.735 0 0 0 13.692 52.04 72.49 72.49 0 0 0-46.297 67.59 72.49 72.49 0 0 0 .785 10.626l-21.342-.287-43.556.64a72.49 72.49 0 0 0 1.006-12.036 72.49 72.49 0 0 0-47.9-68.19 72.49 72.49 0 0 0-.628-.224 72.49 72.49 0 0 1 .627.224 72.49 72.49 0 0 1 .258.092 105.735 105.735 0 0 0 12.826-50.475 105.735 105.735 0 0 0-45.535-86.925l114.625 1.54z"/><circle style="fill:#b3b3b3;fill-rule:evenodd;stroke:none;stroke-width:1.46776;stroke-linecap:round;stroke-linejoin:round;paint-order:stroke fill markers;stop-color:#000" cx="689.046" cy="388.886" r="104.266"/><circle style="fill:gray;fill-rule:evenodd;stroke:none;stroke-width:.985393;stroke-linecap:round;stroke-linejoin:round;paint-order:stroke fill markers;stop-color:#000" cx="623.195" cy="508.58" r="70"/><path style="fill:#f0f;fill-rule:evenodd;stroke:#f0f;stroke-width:.377425;stroke-linecap:round;stroke-linejoin:round;paint-order:stroke fill markers;stop-color:#000" d="M694.41 403.748a26.811 26.811 0 0 0-26.81 26.812 26.811 26.811 0 0 0 26.81 26.81 26.811 26.811 0 0 0 26.813-26.81 26.811 26.811 0 0 0-26.813-26.812zm-.12 4.965a21.846 21.846 0 0 1 .12 0 21.846 21.846 0 0 1 21.848 21.847 21.846 21.846 0 0 1-21.848 21.846 21.846 21.846 0 0 1-21.845-21.846 21.846 21.846 0 0 1 21.724-21.847zM694.41 313.576a26.811 26.811 0 0 0-26.81 26.812 26.811 26.811 0 0 0 26.81 26.81 26.811 26.811 0 0 0 26.813-26.81 26.811 26.811 0 0 0-26.813-26.812zm-.12 4.965a21.846 21.846 0 0 1 .12 0 21.846 21.846 0 0 1 21.848 21.847 21.846 21.846 0 0 1-21.848 21.846 21.846 21.846 0 0 1-21.845-21.846 21.846 21.846 0 0 1 21.724-21.847zM646.295 359.118a26.811 26.811 0 0 0-26.81 26.813 26.811 26.811 0 0 0 26.81 26.81 26.811 26.811 0 0 0 26.813-26.81 26.811 26.811 0 0 0-26.813-26.813zm-.121 4.965a21.846 21.846 0 0 1 .121 0 21.846 21.846 0 0 1 21.848 21.848 21.846 21.846 0 0 1-21.848 21.846 21.846 21.846 0 0 1-21.846-21.846 21.846 21.846 0 0 1 21.725-21.848zM739.076 359.118a26.811 26.811 0 0 0-26.811 26.813 26.811 26.811 0 0 0 26.81 26.81 26.811 26.811 0 0 0 26.813-26.81 26.811 26.811 0 0 0-26.813-26.813zm-.122 4.965a21.846 21.846 0 0 1 .122 0 21.846 21.846 0 0 1 21.847 21.848 21.846 21.846 0 0 1-21.848 21.846 21.846 21.846 0 0 1-21.845-21.846 21.846 21.846 0 0 1 21.724-21.848z"/><circle style="fill:#0f0;fill-rule:evenodd;stroke:none;stroke-width:.363445;stroke-linecap:round;stroke-linejoin:round;paint-order:stroke fill markers;stop-color:#000" cx="694.411" cy="430.559" r="25.818"/><circle style="fill:red;fill-rule:evenodd;stroke:none;stroke-width:.363445;stroke-linecap:round;stroke-linejoin:round;paint-order:stroke fill markers;stop-color:#000" cx="739.076" cy="385.93" r="25.818"/><circle style="fill:#ff7f2a;fill-rule:evenodd;stroke:none;stroke-width:.363445;stroke-linecap:round;stroke-linejoin:round;paint-order:stroke fill markers;stop-color:#000" cx="694.411" cy="340.387" r="25.818"/><circle style="fill:#00f;fill-rule:evenodd;stroke:none;stroke-width:.363445;stroke-linecap:round;stroke-linejoin:round;paint-order:stroke fill markers;stop-color:#000" cx="646.296" cy="385.93" r="25.818"/><circle style="fill:#b3b3b3;fill-rule:evenodd;stroke:none;stroke-width:1.46776;stroke-linecap:round;stroke-linejoin:round;paint-order:stroke fill markers;stop-color:#000" cx="347.046" cy="388.926" r="104.266"/><circle style="fill:gray;fill-rule:evenodd;stroke:none;stroke-width:.985393;stroke-linecap:round;stroke-linejoin:round;paint-order:stroke fill markers;stop-color:#000" cx="415.109" cy="507.524" r="70"/><circle style="fill:#666;fill-rule:evenodd;stroke:none;stroke-width:.363445;stroke-linecap:round;stroke-linejoin:round;paint-order:stroke fill markers;stop-color:#000" cx="395.229" cy="384.651" r="25.818"/><circle style="fill:gray;fill-rule:evenodd;stroke:none;stroke-width:.363445;stroke-linecap:round;stroke-linejoin:round;paint-order:stroke fill markers;stop-color:#000" cx="346.564" cy="425.28" r="25.818"/><circle style="fill:#666;fill-rule:evenodd;stroke:none;stroke-width:.363445;stroke-linecap:round;stroke-linejoin:round;paint-order:stroke fill markers;stop-color:#000" cx="294.448" cy="382.651" r="25.818"/><circle style="fill:#4d4d4d;fill-rule:evenodd;stroke:none;stroke-width:.363445;stroke-linecap:round;stroke-linejoin:round;paint-order:stroke fill markers;stop-color:#000" cx="346.564" cy="341.108" r="25.818"/><circle style="fill:#b3b3b3;fill-rule:evenodd;stroke:none;stroke-width:.61939;stroke-linecap:round;stroke-linejoin:round;paint-order:stroke fill markers;stop-color:#000" cx="415.109" cy="507.524" r="44"/><circle style="fill:#b3b3b3;fill-rule:evenodd;stroke:none;stroke-width:.61939;stroke-linecap:round;stroke-linejoin:round;paint-order:stroke fill markers;stop-color:#000" cx="623.195" cy="508.58" r="44"/><path d="M346.975 283.084a105.735 105.735 0 0 0-97.012 63.846c-65.447 86.157-97.462 168.649-101.545 233.207-2.06 32.567 2.977 60.728 15.254 82.355 12.277 21.627 32.288 36.352 57.406 40.62 48.204 8.188 83.85-12.572 107.43-44.032 20.258-27.028 32.933-61.618 42.08-94.482a72.49 72.49 0 0 0 44.521 15.283 72.49 72.49 0 0 0 66.381-43.37l48.67-.714 26.047.35a72.49 72.49 0 0 0 66.988 44.79 72.49 72.49 0 0 0 44.905-15.585c9.149 32.893 21.829 67.524 42.107 94.58 23.58 31.46 59.226 52.22 107.43 44.03 25.118-4.266 45.13-18.991 57.406-40.618 12.277-21.627 17.314-49.789 15.254-82.356-4.12-65.133-41.335-155.076-107.967-242.066l.016.144a105.735 105.735 0 0 0-93.3-55.982 105.735 105.735 0 0 0-.071 0 105.735 105.735 0 0 0-17.243 1.426h-.189l.352-.291-23.32.342c-96.702.184-193.394-.164-290.075-1.061.18.1.372.18.559.27a105.735 105.735 0 0 0-12.012-.686 105.735 105.735 0 0 0-.072 0zm265.746 2.004-90.862 1.336-71.673-.963a16332.39 16332.39 0 0 0 162.535-.373zm-265.674 12.959a90.773 90.773 0 0 1 90.771 90.771 90.773 90.773 0 0 1-12.959 46.743 72.49 72.49 0 0 0-9.75-.659 72.49 72.49 0 0 0-.03 0 72.49 72.49 0 0 0-66.913 44.682 90.773 90.773 0 0 1-1.12.008 90.773 90.773 0 0 1-90.773-90.774 90.773 90.773 0 0 1 90.774-90.771zm342 0a90.773 90.773 0 0 1 90.771 90.771 90.773 90.773 0 0 1-90.127 90.77 72.49 72.49 0 0 1 .106.248 72.49 72.49 0 0 0-66.602-43.877 72.49 72.49 0 0 0-.03 0 72.49 72.49 0 0 0-11.407.908 72.49 72.49 0 0 0-.621.102 72.49 72.49 0 0 1 .62-.102 72.49 72.49 0 0 1 .25-.04 90.773 90.773 0 0 1-13.734-48.009 90.773 90.773 0 0 1 90.774-90.771zm-60.15 3.812a105.735 105.735 0 0 0-45.586 86.96A105.735 105.735 0 0 0 597 440.856a72.49 72.49 0 0 0-46.296 67.59 72.49 72.49 0 0 0 .785 10.627l-21.342-.287-43.556.64a72.49 72.49 0 0 0 1.006-12.036 72.49 72.49 0 0 0-47.9-68.19 72.49 72.49 0 0 0-.628-.224 72.49 72.49 0 0 1 .627.224 72.49 72.49 0 0 1 .258.092 105.735 105.735 0 0 0 12.826-50.475 105.735 105.735 0 0 0-45.535-86.925l114.625 1.54 107.025-1.574zm65.513 11.584a26.811 26.811 0 0 0-26.81 26.813 26.811 26.811 0 0 0 26.81 26.81 26.811 26.811 0 0 0 26.813-26.81 26.811 26.811 0 0 0-26.813-26.813zm-347.847.721a26.811 26.811 0 0 0-26.811 26.813 26.811 26.811 0 0 0 26.81 26.81 26.811 26.811 0 0 0 26.813-26.81 26.811 26.811 0 0 0-26.813-26.813zm347.724 4.244a21.846 21.846 0 0 1 .002 0 21.846 21.846 0 0 1 .121 0 21.846 21.846 0 0 1 21.848 21.848 21.846 21.846 0 0 1-21.848 21.846 21.846 21.846 0 0 1-21.846-21.846 21.846 21.846 0 0 1 21.723-21.848zm-347.848.72a21.846 21.846 0 0 1 .002 0 21.846 21.846 0 0 1 .122 0 21.846 21.846 0 0 1 21.847 21.849 21.846 21.846 0 0 1-21.848 21.845 21.846 21.846 0 0 1-21.845-21.845 21.846 21.846 0 0 1 21.722-21.848zm-51.992 36.579a26.811 26.811 0 0 0-26.81 26.813 26.811 26.811 0 0 0 26.81 26.81 26.811 26.811 0 0 0 26.813-26.81 26.811 26.811 0 0 0-26.813-26.813zm100.782 2a26.811 26.811 0 0 0-26.811 26.813 26.811 26.811 0 0 0 26.81 26.81 26.811 26.811 0 0 0 26.813-26.81 26.811 26.811 0 0 0-26.812-26.813zm251.066 1.28a26.811 26.811 0 0 0-26.81 26.812 26.811 26.811 0 0 0 26.81 26.81 26.811 26.811 0 0 0 26.812-26.81 26.811 26.811 0 0 0-26.812-26.813zm92.781 0a26.811 26.811 0 0 0-26.81 26.812 26.811 26.811 0 0 0 26.81 26.81 26.811 26.811 0 0 0 26.813-26.81 26.811 26.811 0 0 0-26.813-26.813zm-444.752 1.685a21.846 21.846 0 0 1 .002 0 21.846 21.846 0 0 1 .121 0 21.846 21.846 0 0 1 21.848 21.848 21.846 21.846 0 0 1-21.848 21.845 21.846 21.846 0 0 1-21.845-21.845 21.846 21.846 0 0 1 21.722-21.848zm100.781 2a21.846 21.846 0 0 1 .002 0 21.846 21.846 0 0 1 .122 0 21.846 21.846 0 0 1 21.847 21.848 21.846 21.846 0 0 1-21.847 21.845 21.846 21.846 0 0 1-21.846-21.845 21.846 21.846 0 0 1 21.722-21.848zm251.067 1.28a21.846 21.846 0 0 1 .002 0 21.846 21.846 0 0 1 .12 0 21.846 21.846 0 0 1 21.849 21.847 21.846 21.846 0 0 1-21.848 21.846 21.846 21.846 0 0 1-21.846-21.846 21.846 21.846 0 0 1 21.723-21.848zm92.781 0a21.846 21.846 0 0 1 .002 0 21.846 21.846 0 0 1 .121 0 21.846 21.846 0 0 1 21.848 21.847 21.846 21.846 0 0 1-21.848 21.846 21.846 21.846 0 0 1-21.846-21.846 21.846 21.846 0 0 1 21.723-21.848zm55.826 24.618c49.376 72.98 73.348 141.274 76.659 193.612 1.892 29.915-2.967 54.46-12.829 71.832-9.861 17.372-24.233 27.937-44.136 31.318-41.84 7.107-68.387-9.042-89.143-36.734-19.97-26.643-32.904-64.385-42.043-99.608a72.49 72.49 0 0 0 12.397-40.543 72.49 72.49 0 0 0-1.37-14.023 105.735 105.735 0 0 0 100.467-105.606 105.735 105.735 0 0 0-.002-.248zm-553.433 3a105.735 105.735 0 0 0 102.427 102.934 72.49 72.49 0 0 0-1.154 12.887 72.49 72.49 0 0 0 12.735 41.037c-9.136 35.14-22.054 72.748-41.97 99.318-20.755 27.693-47.302 43.842-89.142 36.734-19.903-3.38-34.275-13.946-44.137-31.318-9.861-17.372-14.72-41.917-12.828-71.832 3.252-51.415 26.442-118.23 74.069-189.76zm105.216 6.766a26.811 26.811 0 0 0-26.81 26.812 26.811 26.811 0 0 0 26.81 26.811 26.811 26.811 0 0 0 26.813-26.81 26.811 26.811 0 0 0-26.813-26.813zm-.123 4.965a21.846 21.846 0 0 1 .002 0 21.846 21.846 0 0 1 .122 0 21.846 21.846 0 0 1 21.847 21.847 21.846 21.846 0 0 1-21.848 21.846 21.846 21.846 0 0 1-21.845-21.846 21.846 21.846 0 0 1 21.722-21.847zm347.971.314a26.811 26.811 0 0 0-26.81 26.813 26.811 26.811 0 0 0 26.81 26.81 26.811 26.811 0 0 0 26.813-26.81 26.811 26.811 0 0 0-26.813-26.813zm-.123 4.965a21.846 21.846 0 0 1 .002 0 21.846 21.846 0 0 1 .121 0 21.846 21.846 0 0 1 21.848 21.848 21.846 21.846 0 0 1-21.848 21.845 21.846 21.846 0 0 1-21.846-21.845 21.846 21.846 0 0 1 21.723-21.848zm-269.021 27.037a72.49 72.49 0 0 1 .572.084 72.49 72.49 0 0 1 .668.104 72.49 72.49 0 0 0-.668-.104 72.49 72.49 0 0 0-.572-.084zm2.193.346a72.49 72.49 0 0 1 .498.088 72.49 72.49 0 0 1 .643.117 72.49 72.49 0 0 0-.643-.117 72.49 72.49 0 0 0-.498-.088zm1.291.234a72.49 72.49 0 0 1 .613.121 72.49 72.49 0 0 1 .701.145 72.49 72.49 0 0 1 .696.15 72.49 72.49 0 0 0-.696-.15 72.49 72.49 0 0 0-.7-.145 72.49 72.49 0 0 0-.614-.12zm2.018.416a72.49 72.49 0 0 1 .695.158 72.49 72.49 0 0 0-.695-.158zm180.205.383a72.49 72.49 0 0 0-.41.072 72.49 72.49 0 0 1 .41-.072zm-178.08.121a72.49 72.49 0 0 1 .654.17 72.49 72.49 0 0 1 .691.186 72.49 72.49 0 0 1 .612.17 72.49 72.49 0 0 0-.612-.17 72.49 72.49 0 0 0-.691-.186 72.49 72.49 0 0 0-.654-.17zm3.41.953a72.49 72.49 0 0 1 .683.213 72.49 72.49 0 0 0-.683-.213zm168.453.274a72.49 72.49 0 0 0-.668.18 72.49 72.49 0 0 1 .668-.18zm-166.41.385a72.49 72.49 0 0 1 .63.216 72.49 72.49 0 0 0-.63-.216zm-23.237 11.068a57.595 57.595 0 0 1 57.594 57.594 57.595 57.595 0 0 1-57.594 57.595 57.595 57.595 0 0 1-57.595-57.595 57.595 57.595 0 0 1 57.595-57.594zm208.086 1.057a57.595 57.595 0 0 1 57.594 57.593 57.595 57.595 0 0 1-57.594 57.596 57.595 57.595 0 0 1-57.595-57.596 57.595 57.595 0 0 1 57.595-57.593zM415.11 462.707a44.685 44.685 0 0 0-44.685 44.684 44.685 44.685 0 0 0 44.685 44.685 44.685 44.685 0 0 0 44.686-44.685 44.685 44.685 0 0 0-44.686-44.684zm208.086 1.057a44.685 44.685 0 0 0-44.685 44.683 44.685 44.685 0 0 0 44.685 44.686 44.685 44.685 0 0 0 44.686-44.686 44.685 44.685 0 0 0-44.686-44.683zm-208.086 3.908a39.72 39.72 0 0 1 39.72 39.719 39.72 39.72 0 0 1-39.72 39.72 39.72 39.72 0 0 1-39.72-39.72 39.72 39.72 0 0 1 39.72-39.72zm208.086 1.057a39.72 39.72 0 0 1 39.72 39.718 39.72 39.72 0 0 1-39.72 39.721 39.72 39.72 0 0 1-39.72-39.72 39.72 39.72 0 0 1 39.72-39.72zm-275.818 12.835a72.49 72.49 0 0 0-.223.594 72.49 72.49 0 0 1 .223-.594zm345.59 7.225a72.49 72.49 0 0 1 .133.48 72.49 72.49 0 0 0-.133-.48zm-348.004.322a72.49 72.49 0 0 0-.145.563 72.49 72.49 0 0 1 .145-.563zm-.317 1.258a72.49 72.49 0 0 0-.322 1.395 72.49 72.49 0 0 1 .322-1.395zm348.89.559a72.49 72.49 0 0 1 .107.437 72.49 72.49 0 0 0-.108-.437zm-349.52 2.306a72.49 72.49 0 0 0-.123.635 72.49 72.49 0 0 1 .123-.635z"/><path fill="#a7a7a7" d="M358.5 283.632c105.988.983 211.988 1.316 318 1a16332.39 16332.39 0 0 1-313 .5c-1.882-.198-3.548-.698-5-1.5z"/><path style="fill:#d45500" d="M344.016 493.234a72.49 72.49 0 0 0-.123.635 72.49 72.49 0 0 1 .123-.635zM693.535 490.928a72.49 72.49 0 0 1 .108.437 72.49 72.49 0 0 0-.108-.437zM344.647 490.37a72.49 72.49 0 0 0-.323 1.394 72.49 72.49 0 0 1 .323-1.395zM344.963 489.111a72.49 72.49 0 0 0-.145.563 72.49 72.49 0 0 1 .145-.563z"/></svg>