<svg xmlns="http://www.w3.org/2000/svg" width="1024" height="1024" fill-rule="evenodd" clip-rule="evenodd" image-rendering="optimizeQuality" shape-rendering="geometricPrecision" text-rendering="geometricPrecision"><path d="M337.49 283.424c-4.644-.028-8.975.998-12.99 3.076a75.646 75.646 0 0 0-13 3c-2.467.255-4.467 1.255-6 3-3.239.962-6.239 2.295-9 4-1.527-.073-2.527.594-3 2-9.485 4.812-17.485 11.479-24 20-2.087 1.085-3.42 2.751-4 5-5.967 8.644-11.967 17.31-18 26-2.322 1.302-3.655 3.302-4 6-1 .333-1.667 1-2 2-1.406.473-2.073 1.473-2 3-5.639 5.929-10.306 12.596-14 20-1.406.473-2.073 1.473-2 3-1.692 1.705-3.025 3.705-4 6-1.75 1.159-2.75 2.826-3 5-3.405 3.795-6.071 8.128-8 13-2.088 1.836-3.421 4.169-4 7-1.39 1.399-2.39 3.066-3 5a726.923 726.923 0 0 0-5 8c-1.565 2.009-2.565 4.343-3 7-2.609 3.599-4.609 7.599-6 12-1.406.473-2.073 1.473-2 3v2c-1.908.986-2.908 2.652-3 5l-1 2c-2.084 2.553-3.417 5.553-4 9a5.727 5.727 0 0 0-1 3c-2.419 3.564-4.086 7.564-5 12a71.194 71.194 0 0 0-3 9c-1.574 1.602-2.241 3.602-2 6-1.572 2.715-2.572 5.715-3 9-2.155 2.117-3.155 4.784-3 8-.801 1.542-1.134 3.208-1 5-1.149.291-1.816 1.124-2 2.5a29.495 29.495 0 0 0-1 6.5 462.66 462.66 0 0 1-4 17c-1.081 3.127-1.747 6.46-2 10-3.385 21.866-3.885 43.866-1.5 66 .419 3.892 1.252 7.558 2.5 11-.09 2.652.576 4.985 2 7a559.907 559.907 0 0 0 7 16c-.073 1.527.594 2.527 2 3a743.677 743.677 0 0 0 20.5 27 25.64 25.64 0 0 0 10.5 7c.473 1.406 1.473 2.073 3 2 1.714 1.238 3.714 1.905 6 2 .12 1.086.787 1.753 2 2a378.666 378.666 0 0 0 17 3 907.474 907.474 0 0 0 15 1 385.225 385.225 0 0 0 29-3c1.602-1.574 3.602-2.241 6-2 2.157-.907 4.49-1.573 7-2 3.649-.767 6.982-2.1 10-4 .79-.901 1.79-1.568 3-2 3.302-.412 5.969-1.745 8-4a3420.593 3420.593 0 0 1 14-11c2.667-.667 4.333-2.333 5-5a128.653 128.653 0 0 0 16-21c1.835-.622 3.002-1.956 3.5-4a110.146 110.146 0 0 0 2.5-8c.296-1.903.963-3.57 2-5 1.745-1.533 2.745-3.533 3-6a89.87 89.87 0 0 1 4-10c1.406-.473 2.073-1.473 2-3v-1c.958-.453 1.792-1.119 2.5-2 .44-2.366.94-4.699 1.5-7a56.004 56.004 0 0 1 3-10c2.084-2.553 3.417-5.553 4-9a53.76 53.76 0 0 1 2-8c.617-.111 1.117-.444 1.5-1a140.721 140.721 0 0 1 2.5-9c-.131-.876.202-1.543 1-2 5.261 4.126 10.927 7.46 17 10 2.022 2.193 4.689 3.193 8 3 3.71 1.636 7.71 2.302 12 2a194.614 194.614 0 0 0 22-1c3.355-.19 6.355-1.19 9-3 17.66-6.656 30.993-18.322 40-35 .978-.311 1.645-.978 2-2 25.991-1 51.991-1.333 78-1-.215 1.679.452 2.679 2 3 10.52 21.512 27.52 34.845 51 40 .111.617.444 1.117 1 1.5l10 .5c5.255.166 10.255-.501 15-2l6-1 10-2.5c.556-.383.889-.883 1-1.5l4-2c3.849-.418 6.849-2.085 9-5 2.317-1.034 3.317-.034 3 3 .583 3.447 1.916 6.447 4 9a133.74 133.74 0 0 0 3 11c-.334 2.991.666 5.324 3 7a31.686 31.686 0 0 1 2 6c.255 2.467 1.255 4.467 3 6a31.686 31.686 0 0 1 2 6c.583 3.447 1.916 6.447 4 9 .838.342 1.172 1.008 1 2 .255 2.467 1.255 4.467 3 6 1.037 1.43 1.704 3.097 2 5-.073 1.527.594 2.527 2 3v2c-.073 1.527.594 2.527 2 3 12.325 24.318 31.325 41.318 57 51 2.518.764 4.851 1.764 7 3a63.322 63.322 0 0 0 11 2c1.976 1.511 4.309 2.344 7 2.5a256.122 256.122 0 0 0 32 0c3.351-.057 6.351-.891 9-2.5h2c3.662-.223 6.995-1.223 10-3 7.727-2.731 14.393-7.064 20-13 2.586-1.138 4.253-3.138 5-6 4.03-5.024 8.03-10.024 12-15 1.908-.986 2.908-2.652 3-5-.073-1.527.594-2.527 2-3 2.271-2.112 3.604-4.779 4-8l2-7c2.334-1.676 3.334-4.009 3-7a33.691 33.691 0 0 1 2-9c.722-.418 1.222-1.084 1.5-2a98.432 98.432 0 0 0 .5-14 235.608 235.608 0 0 0-2-38 905.837 905.837 0 0 0-2-18c-.176-3.227-.843-6.227-2-9a64.605 64.605 0 0 1-3-12c.09-2.652-.576-4.985-2-7a61.362 61.362 0 0 1-3-13 140.721 140.721 0 0 1-2.5-9c-.383-.556-.883-.889-1.5-1-.554-3.246-1.554-6.246-3-9a127.41 127.41 0 0 1-4-11c.073-1.527-.594-2.527-2-3a1705.645 1705.645 0 0 1-10-25c.073-1.527-.594-2.527-2-3-.16-1.653-.826-2.986-2-4-.255-2.467-1.255-4.467-3-6a55.533 55.533 0 0 0-4-9c.073-1.527-.594-2.527-2-3a119.047 119.047 0 0 0-9-16c.073-1.527-.594-2.527-2-3-.432-1.21-1.099-2.21-2-3-.255-2.467-1.255-4.467-3-6a3583.47 3583.47 0 0 1-10-15c.073-1.527-.594-2.527-2-3-2.64-4.316-5.306-8.649-8-13a246.864 246.864 0 0 1-22-31c.073-1.527-.594-2.527-2-3a115.27 115.27 0 0 0-19-25c-1.411-2.414-3.411-4.081-6-5a124.733 124.733 0 0 0-16-10c-.473-1.406-1.473-2.073-3-2-1.653-.16-2.986-.826-4-2-1.43-1.037-3.097-1.704-5-2-16.475-6.245-33.475-8.245-51-6a16332.39 16332.39 0 0 1-313 .5c-1.882-.198-3.548-.698-5-1.5h-19a31.76 31.76 0 0 0-2.01-.076zM869.81 496.7a29.495 29.495 0 0 0 .02.131c-.008-.044-.014-.087-.02-.13z"/><path fill="#a7a7a7" d="M358.5 283.5c105.988.983 211.988 1.316 318 1a16332.39 16332.39 0 0 1-313 .5c-1.882-.198-3.548-.698-5-1.5Z"/><path fill="gray" d="M349.5 297.5c-36.445.297-63.945 15.964-82.5 47a59.44 59.44 0 0 0-3.5 10c-1.948 1.82-2.948 4.154-3 7-1.248 3.442-2.081 7.108-2.5 11-.5 8.327-.666 16.66-.5 25a285.67 285.67 0 0 0 3.5 19 51.22 51.22 0 0 1 2.5 4 73.16 73.16 0 0 0 11 20c4.84 7.902 11.173 14.235 19 19 5.324 4.667 11.324 8.334 18 11a15.418 15.418 0 0 1 1.799-.055 15.418 15.418 0 0 1 .851.047 15.432 15.432 0 0 0-2.65.008c10.97 5.426 22.636 7.593 35 6.5 16.775-32.387 43.441-46.72 80-43a145.764 145.764 0 0 0 10.5-28.5c1.688-10.796 1.855-21.463.5-32-.164-6.525-1.831-12.525-5-18a400.153 400.153 0 0 0-6.5-15c-.708-.881-1.542-1.547-2.5-2-3.162-6.836-7.829-12.503-14-17a55.665 55.665 0 0 0-11-9.5 132.038 132.038 0 0 0-24-11.5 144.857 144.857 0 0 0-25-3zm20.773 14.547a12.403 12.403 0 0 1-.1.223 12.403 12.403 0 0 0 .1-.223zm-22.994 8.549c3.88-.08 7.954.555 12.221 1.904 4.229 2.725 8.062 6.059 11.5 10 2.076 3.393 3.242 7.06 3.5 11 .155 18.18-8.845 28.18-27 30-6.916.256-12.916-1.911-18-6.5a119.525 119.525 0 0 0-8-9.5c-2.086-9.091-1.086-17.758 3-26 6.653-7.094 14.246-10.728 22.78-10.904zm61.83 1.515a41.415 41.415 0 0 1-.195.3 41.415 41.415 0 0 1-.297.443 41.415 41.415 0 0 0 .297-.444 41.415 41.415 0 0 0 .195-.299zm-48.795.409a2.428 2.428 0 0 1-.128.015 2.428 2.428 0 0 1-.131.008 2.428 2.428 0 0 1-.133.002 2.428 2.428 0 0 1-.125-.006 2.428 2.428 0 0 0 .125.006 2.428 2.428 0 0 0 .133-.002 2.428 2.428 0 0 0 .13-.008 2.428 2.428 0 0 0 .13-.015zm-.652.005a2.428 2.428 0 0 0 .127.014 2.428 2.428 0 0 1-.127-.014zm-41.357 1.43a57.829 57.829 0 0 1-.602.219 57.829 57.829 0 0 0 .602-.219zm-1.205.43a57.829 57.829 0 0 1-.436.148 57.829 57.829 0 0 0 .436-.148zm-3.051.955a57.829 57.829 0 0 1-.393.11 57.829 57.829 0 0 0 .393-.11zm6.726 7.385a4.457 4.457 0 0 1 .125.113 4.457 4.457 0 0 0-.125-.113zm.256.244a4.457 4.457 0 0 1 .121.13 4.457 4.457 0 0 1 .116.135 4.457 4.457 0 0 0-.116-.134 4.457 4.457 0 0 0-.12-.131zm-.77.123a20.2 20.2 0 0 0-.07.187 20.2 20.2 0 0 1 .07-.187zm1.413.724a4.457 4.457 0 0 1 .058.104 4.457 4.457 0 0 0-.058-.104zm-1.904.715a20.2 20.2 0 0 0-.065.223 20.2 20.2 0 0 1 .065-.223zm-.086.297a20.2 20.2 0 0 0-.088.32 20.2 20.2 0 0 1 .088-.32zm-.092.338a20.2 20.2 0 0 0-.084.322 20.2 20.2 0 0 1 .084-.322zm-.352 1.574a20.2 20.2 0 0 0-.031.176 20.2 20.2 0 0 1 .031-.176zm104.176 1.836a47.141 47.141 0 0 0-.805.762 47.141 47.141 0 0 1 .805-.762zm-110.494.985a286.553 286.553 0 0 0-1.047.804 286.553 286.553 0 0 0-1.125.873 286.553 286.553 0 0 1 1.125-.873 286.553 286.553 0 0 1 1.047-.804zm108.869.59a47.141 47.141 0 0 0-.402.413 47.141 47.141 0 0 1 .402-.414zm-128.926.671a439.304 439.304 0 0 1-1.299.969 439.304 439.304 0 0 0 1.3-.969zm15.541 2.264a286.553 286.553 0 0 0-.875.7 286.553 286.553 0 0 1 .875-.7zm-7.345 5.31a11.068 11.068 0 0 0-.202.122 11.068 11.068 0 0 1 .202-.122zm-2.752.407a3.647 3.647 0 0 0 .035.031l-.035-.031zm2.08.02a11.068 11.068 0 0 0-.205.144 11.068 11.068 0 0 1 .205-.145zm-.252.177a11.068 11.068 0 0 0-.192.143 11.068 11.068 0 0 1 .192-.143zm3.576 10.201c1.549.002 3.145.102 4.787.299 7.997 2.93 14.497 7.93 19.5 15 2.112 7.743 1.946 15.41-.5 23-3.385 5.719-8.052 10.052-14 13-10.949 3.812-20.949 2.146-30-5a104.957 104.957 0 0 1-6.5-10 27.866 27.866 0 0 1-1.5-11c-.237-3.91.596-7.577 2.5-11 6.3-9.545 14.87-14.312 25.713-14.299zm90.039.52c7.918.23 14.834 3.489 20.748 9.779 5.681 6.625 7.514 14.291 5.5 23-1.993 2.318-3.159 4.984-3.5 8-5.063 5.216-11.063 9.049-18 11.5-3.317.498-6.65.665-10 .5-8.638-1.989-15.304-6.655-20-14-2.443-5.707-3.443-11.707-3-18 2.996-10.329 9.662-16.996 20-20 2.862-.597 5.613-.856 8.252-.78zm32.576 3.175a21.83 21.83 0 0 0-.334.21 21.83 21.83 0 0 1 .334-.21zm-6.553 2.829a4.457 4.457 0 0 1 .125.113 4.457 4.457 0 0 0-.125-.113zm.256.244a4.457 4.457 0 0 1 .121.13 4.457 4.457 0 0 1 .116.135 4.457 4.457 0 0 0-.116-.134 4.457 4.457 0 0 0-.12-.131zm.643.847a4.457 4.457 0 0 1 .058.104 4.457 4.457 0 0 0-.058-.104zm-4.133 1.125a83.258 83.258 0 0 1-.47.37 83.258 83.258 0 0 0 .47-.37zm-149.666 3.82a4.934 4.934 0 0 0-.059.135 4.934 4.934 0 0 1 .059-.134zm-.201.53a4.934 4.934 0 0 0-.041.139 4.934 4.934 0 0 1 .04-.139zm-.194.906a4.934 4.934 0 0 0-.013.135 4.934 4.934 0 0 1 .013-.135zm-.02.951a4.934 4.934 0 0 0 .017.164 4.934 4.934 0 0 1-.016-.164zm-1.03.442a51.569 51.569 0 0 0-.565.056 51.569 51.569 0 0 0-.496.055 51.569 51.569 0 0 1 .496-.055 51.569 51.569 0 0 1 .565-.056zm-5.371.795a51.569 51.569 0 0 0-.559.115 51.569 51.569 0 0 1 .559-.115zm177.26 10.728-.016.268a145.053 145.053 0 0 0 .015-.268zm-1.483 5.381a70.517 70.517 0 0 1-.416.344 70.517 70.517 0 0 0 .416-.344zm-2.115 1.7a70.517 70.517 0 0 1-.428.327 70.517 70.517 0 0 0 .428-.328zm-2.264 1.677a70.517 70.517 0 0 1-.43.303 70.517 70.517 0 0 0 .43-.303zm-93.611 1.738a18.822 18.822 0 0 1-.225.176 18.822 18.822 0 0 0 .225-.176zm-.809.614a18.822 18.822 0 0 1-.267.191 18.822 18.822 0 0 0 .267-.191zm-.334.236a18.822 18.822 0 0 1-.265.178 18.822 18.822 0 0 0 .265-.178zm90.586.156a70.517 70.517 0 0 1-.514.31 70.517 70.517 0 0 0 .514-.31zm-99.771.065a20.093 20.093 0 0 0 .04.373 20.093 20.093 0 0 0 .042.326 20.093 20.093 0 0 1-.041-.326 20.093 20.093 0 0 1-.041-.373zm7.945.56a18.822 18.822 0 0 1-.258.147 18.822 18.822 0 0 0 .258-.147zm-7.85.233a20.093 20.093 0 0 0 .035.246 20.093 20.093 0 0 1-.035-.246zm7.262.289a4.934 4.934 0 0 0-.059.134 4.934 4.934 0 0 1 .059-.134zm89.984.267a70.517 70.517 0 0 1-.437.24 70.517 70.517 0 0 0 .437-.24zm-97.119.235a20.093 20.093 0 0 0 .037.205 20.093 20.093 0 0 1-.037-.205zm6.934.027a4.934 4.934 0 0 0-.041.139 4.934 4.934 0 0 1 .04-.139zm-6.867.328a20.093 20.093 0 0 0 .048.235 20.093 20.093 0 0 1-.048-.235zm6.691.434a4.934 4.934 0 0 0-.018.144 4.934 4.934 0 0 0-.013.135 4.934 4.934 0 0 1 .013-.135 4.934 4.934 0 0 1 .018-.144zm-6.344 1.021a20.093 20.093 0 0 0 .084.293 20.093 20.093 0 0 1-.084-.293zm6.307.074a4.934 4.934 0 0 0 .016.164 4.934 4.934 0 0 1-.016-.164zm-6.219.229a20.093 20.093 0 0 0 .088.289 20.093 20.093 0 0 1-.088-.289zm.13.422a20.093 20.093 0 0 0 .08.246 20.093 20.093 0 0 1-.08-.246zm.366 1.047a20.093 20.093 0 0 0 .108.279 20.093 20.093 0 0 1-.108-.28zm18.944.466c4.384.026 8.99 1.089 13.818 3.188 5.483 3.816 9.483 8.816 12 15 1.397 6.353 1.23 12.687-.5 19-7.427 13.296-18.594 18.296-33.5 15a73.609 73.609 0 0 1-10-5.5 89.597 89.597 0 0 1-7-9.5c-3.284-8.999-2.451-17.666 2.5-26 6.752-7.507 14.312-11.237 22.682-11.188zm-33.057 7.13a12.93 12.93 0 0 1 .082 0 12.93 12.93 0 0 1 .291.001 12.93 12.93 0 0 0-.291-.002 12.93 12.93 0 0 0-.246.004 12.93 12.93 0 0 1 .164-.004zm.418.003a12.93 12.93 0 0 1 .248.008 12.93 12.93 0 0 0-.248-.008zm.332.012a12.93 12.93 0 0 1 .238.014 12.93 12.93 0 0 0-.238-.014zm87.383 2.002-.215.033a121.005 121.005 0 0 0 .215-.033zm-86.762 1.05a17.842 17.842 0 0 1-.277.223 17.842 17.842 0 0 0 .277-.222zm-4.22.216a4.457 4.457 0 0 1 .124.113 4.457 4.457 0 0 0-.125-.113zm.255.244a4.457 4.457 0 0 1 .121.13 4.457 4.457 0 0 1 .116.135 4.457 4.457 0 0 0-.116-.134 4.457 4.457 0 0 0-.12-.131zm2.537.597a17.842 17.842 0 0 1-.173.116 17.842 17.842 0 0 0 .173-.116zm-1.894.25a4.457 4.457 0 0 1 .058.104 4.457 4.457 0 0 0-.058-.104zm-44.154 6.46a8.43 8.43 0 0 1-.018.173 8.43 8.43 0 0 0 .018-.174zm125.005.165a8.43 8.43 0 0 1 .08.002 8.43 8.43 0 0 1 .245.006 8.43 8.43 0 0 1 .244.014 8.43 8.43 0 0 0-.244-.014 8.43 8.43 0 0 0-.245-.006 8.43 8.43 0 0 0-.203 0 8.43 8.43 0 0 1 .123-.002zm-.437.012a8.43 8.43 0 0 0-.193.012 8.43 8.43 0 0 1 .193-.012zm-.227.016a8.43 8.43 0 0 0-.136.011 8.43 8.43 0 0 1 .136-.011zm-124.48.726a8.43 8.43 0 0 1-.047.215 8.43 8.43 0 0 0 .047-.215zM375 422.5a79.066 79.066 0 0 1 .19.723 79.066 79.066 0 0 1 .175.697 79.066 79.066 0 0 0-.176-.697 79.066 79.066 0 0 0-.189-.723zm-106.74.201a8.43 8.43 0 0 1-.051.182 8.43 8.43 0 0 1-.07.224 8.43 8.43 0 0 0 .07-.224 8.43 8.43 0 0 0 .05-.182zm107.478 2.79a79.066 79.066 0 0 1 .12.53 79.066 79.066 0 0 0-.12-.53zm8.309 1.665-.51.399a331.699 331.699 0 0 0 .51-.399zm-7.711 1.221a79.066 79.066 0 0 1 .103.557 79.066 79.066 0 0 0-.103-.557zm4.248 1.441-.34.258a331.699 331.699 0 0 0 .34-.258zm-3.963.162a79.066 79.066 0 0 1 .082.502 79.066 79.066 0 0 0-.082-.502zm-57.21 17.233a55.237 55.237 0 0 0-.464.402 55.237 55.237 0 0 1 .463-.402zm-1.085.959a55.237 55.237 0 0 0-.306.28 55.237 55.237 0 0 0-.457.425 55.237 55.237 0 0 0-.454.432 55.237 55.237 0 0 1 .454-.432 55.237 55.237 0 0 1 .457-.426 55.237 55.237 0 0 1 .306-.28zm-6.05 4.348a8.43 8.43 0 0 1-.137.011 8.43 8.43 0 0 0 .136-.011zm-.17.015a8.43 8.43 0 0 1-.194.012 8.43 8.43 0 0 0 .193-.012zm-1.2.002a8.43 8.43 0 0 0 .244.014 8.43 8.43 0 0 0 .245.006 8.43 8.43 0 0 0 .203 0 8.43 8.43 0 0 1-.203 0 8.43 8.43 0 0 1-.245-.006 8.43 8.43 0 0 1-.244-.014zm29.346 4.531a22.981 22.981 0 0 0-.291.084 22.981 22.981 0 0 1 .291-.084zm-1.148.356a22.981 22.981 0 0 0-.245.086 22.981 22.981 0 0 1 .245-.086zm-.706.252a22.981 22.981 0 0 0-.343.133 22.981 22.981 0 0 0-.356.142 22.981 22.981 0 0 1 .356-.142 22.981 22.981 0 0 1 .343-.133zm-1.513.63a22.981 22.981 0 0 0-.307.145 22.981 22.981 0 0 1 .307-.144zm-1.22.76a4.457 4.457 0 0 1 .161.073 4.457 4.457 0 0 1 .16.078 4.457 4.457 0 0 1 .094.05 4.457 4.457 0 0 0-.094-.05 4.457 4.457 0 0 0-.16-.078 4.457 4.457 0 0 0-.162-.073zm-21.446 11.432a15.418 15.418 0 0 1 .824.094 15.24 15.24 0 0 0-.824-.094zm.879.102a15.418 15.418 0 0 1 .787.134 15.215 15.215 0 0 0-.787-.134zm.873.152a15.418 15.418 0 0 1 .8.187c-.265-.07-.532-.132-.8-.187zm.845.2a15.418 15.418 0 0 1 .838.245 15.418 15.418 0 0 1 .846.303 16.013 16.013 0 0 0-1.684-.549z"/><path fill="#999" d="M697.738 297.479A183.503 183.503 0 0 0 670.5 299.5c-30.717 7.217-52.551 25.217-65.5 54a27.32 27.32 0 0 0-2.5 13c-.901.79-1.568 1.79-2 3-4.754 23.131-.92 44.798 11.5 65 2.381.935 4.881 1.268 7.5 1 17.392.013 33.392 4.68 48 14a132.754 132.754 0 0 1 16.5 17 94.197 94.197 0 0 1 5.5 12c44.414-2.771 73.748-25.104 88-67 2.888-11.675 3.555-23.341 2-35-.235-10.965-3.235-20.965-9-30-2.879-7.107-7.212-13.107-13-18-5.727-7.387-12.727-13.387-21-18a108.408 108.408 0 0 0-33-12c-1.291.237-2.291-.096-3-1a183.503 183.503 0 0 0-2.762-.021zm5.996 5.582a21.334 21.334 0 0 0-.216.08 21.334 21.334 0 0 1 .216-.08zm-6.656 3.92a21.334 21.334 0 0 0-.29.257 21.334 21.334 0 0 0-.288.262 21.334 21.334 0 0 1 .287-.262 21.334 21.334 0 0 1 .291-.258zm-.771 3.039a20.2 20.2 0 0 0-.344.037 20.2 20.2 0 0 1 .344-.037zm-1.092.14a20.2 20.2 0 0 0-.299.049 20.2 20.2 0 0 1 .299-.049zm-.475.08a20.2 20.2 0 0 0-.27.051 20.2 20.2 0 0 0-.37.076 20.2 20.2 0 0 0-.325.072 20.2 20.2 0 0 1 .325-.072 20.2 20.2 0 0 1 .37-.076 20.2 20.2 0 0 1 .27-.05zm-2.467.61a20.2 20.2 0 0 0-.285.091 20.2 20.2 0 0 1 .285-.091zm-.716.24a20.2 20.2 0 0 0-.278.101 20.2 20.2 0 0 1 .278-.101zm-.27 4.144c8.7-.197 16.439 2.558 23.213 8.266 6.042 7.537 8.375 16.204 7 26a1612.686 1612.686 0 0 0-8 12l-11 5.5c-6.082.788-12.082.621-18-.5-13.481-6.285-19.147-16.952-17-32a55.533 55.533 0 0 0 4-9 61.457 61.457 0 0 0 8-6.5c2.658-1.478 5.325-2.645 8-3.5a40.911 40.911 0 0 1 3.787-.266zm-27.389 14.649a22.226 22.226 0 0 1-.093.336 22.226 22.226 0 0 0 .093-.336zm-.613 1.904a22.226 22.226 0 0 1-.113.303 22.226 22.226 0 0 0 .113-.303zm-.457 1.139a22.226 22.226 0 0 1-.139.31 22.226 22.226 0 0 0 .14-.31zm-.691 1.441a22.226 22.226 0 0 1-.155.287 22.226 22.226 0 0 0 .155-.287zm3.158 5.053a456.8 456.8 0 0 1-.748 1.635 456.8 456.8 0 0 1-.688 1.488 456.8 456.8 0 0 0 .688-1.488 456.8 456.8 0 0 0 .748-1.635zm-23.063 3.435a3.647 3.647 0 0 1 .123.08 3.647 3.647 0 0 1 .131.094 3.647 3.647 0 0 0-.13-.093 3.647 3.647 0 0 0-.124-.08zm-6.568 3.211a4.457 4.457 0 0 1 .162.073 4.457 4.457 0 0 1 .16.078 4.457 4.457 0 0 1 .094.05 4.457 4.457 0 0 0-.094-.05 4.457 4.457 0 0 0-.16-.078 4.457 4.457 0 0 0-.162-.073zm95.389 2.096a24.362 24.362 0 0 1-.31.106 24.362 24.362 0 0 0 .31-.106zm-.823.272a24.362 24.362 0 0 1-.304.093 24.362 24.362 0 0 1-.399.116 24.362 24.362 0 0 1-.351.095 24.362 24.362 0 0 0 .351-.095 24.362 24.362 0 0 0 .399-.116 24.362 24.362 0 0 0 .304-.093zm-1.146.328a24.362 24.362 0 0 1-.35.09 24.362 24.362 0 0 0 .35-.09zm-.37.093a24.362 24.362 0 0 1-.394.092 24.362 24.362 0 0 0 .395-.092zm-4.1.631a24.362 24.362 0 0 1-.401.026 24.362 24.362 0 0 1-.414.017 24.362 24.362 0 0 1-.328.01 24.362 24.362 0 0 0 .328-.01 24.362 24.362 0 0 0 .414-.017 24.362 24.362 0 0 0 .4-.026zm-2.884.026a24.362 24.362 0 0 0 .364.015 24.362 24.362 0 0 1-.364-.015zm48.137 3.195a6.978 6.978 0 0 0-.117.178 6.978 6.978 0 0 1 .117-.178zm-114.209 2.05a6.802 6.802 0 0 0 .207.071 6.802 6.802 0 0 0 .21.065 6.802 6.802 0 0 0 .212.056 6.802 6.802 0 0 0 .213.051 6.802 6.802 0 0 1-.213-.05 6.802 6.802 0 0 1-.213-.057 6.802 6.802 0 0 1-.209-.065 6.802 6.802 0 0 1-.207-.07zm-9.367 4.462c10.851.02 19.42 4.78 25.709 14.281a19.936 19.936 0 0 1 2.5 9c-.726 21.053-11.726 31.053-33 30-15.545-5.096-22.545-15.762-21-32 3.29-10.793 10.29-17.793 21-21a40.93 40.93 0 0 1 4.791-.281zm80.967.215a57.15 57.15 0 0 0-.447.021 57.15 57.15 0 0 1 .447-.021zm6.242.066h11c17.762 5.551 24.762 17.551 21 36-2.42 3.6-5.086 7.1-8 10.5-16.127 10.381-30.127 8.214-42-6.5-8.051-19.887-2.051-33.221 18-40zm-9.385.158a57.15 57.15 0 0 0-.511.055 57.15 57.15 0 0 1 .511-.055zm-1.265.14a57.15 57.15 0 0 0-.516.065 57.15 57.15 0 0 1 .516-.064zm-.616.079a57.15 57.15 0 0 0-.601.084 57.15 57.15 0 0 1 .601-.084zm-114.455 5.715a13.315 13.315 0 0 0-.273.119 13.315 13.315 0 0 1 .273-.12zm104.307.22a12.494 12.494 0 0 1 .066.262 12.494 12.494 0 0 0-.066-.262zm.135.563a12.494 12.494 0 0 1 .103.535 12.494 12.494 0 0 0-.103-.535zm-106.334.207a13.315 13.315 0 0 0-.205.133 13.315 13.315 0 0 1 .205-.133zm106.443.365a12.494 12.494 0 0 1 .084.59 12.494 12.494 0 0 0-.084-.59zm.17 2.112a12.494 12.494 0 0 1-.004.257 12.494 12.494 0 0 0 .004-.257zm-.016.57a12.494 12.494 0 0 1-.017.281 12.494 12.494 0 0 0 .017-.281zm-7.627 11.392a13.24 13.24 0 0 0-.195.131 13.24 13.24 0 0 1 .195-.13zm-2.904.862a4.933 4.933 0 0 1 .143.064 4.933 4.933 0 0 0-.143-.064zm.174.078a4.933 4.933 0 0 1 .15.076 4.933 4.933 0 0 0-.15-.076zm-9.857 3.797a189.776 189.776 0 0 1-1.043.504 189.776 189.776 0 0 0 1.043-.504zm-5.346 3.082a15.855 15.855 0 0 1-.194.256 15.855 15.855 0 0 0 .194-.256zm92.394.273-.015.268a145.053 145.053 0 0 0 .015-.268zm-92.847.313a15.855 15.855 0 0 1-.145.176 15.855 15.855 0 0 0 .145-.176zm-2.041 2.094a15.855 15.855 0 0 1-.233.195 15.855 15.855 0 0 0 .233-.195zm-4.121 1.283a3.647 3.647 0 0 0 .035.031l-.035-.031zm1.646.447a15.855 15.855 0 0 1-.26.145 15.855 15.855 0 0 0 .26-.145zm-78.594 6.475a10.258 10.258 0 0 0-.115.195 10.258 10.258 0 0 1 .115-.195zm112.194.736a12.93 12.93 0 0 1 .004.246 12.93 12.93 0 0 1-.002.291 12.93 12.93 0 0 0 .002-.291 12.93 12.93 0 0 0-.004-.246zm0 .582a12.93 12.93 0 0 1-.008.248 12.93 12.93 0 0 0 .008-.248zm-.012.332a12.93 12.93 0 0 1-.014.238 12.93 12.93 0 0 0 .014-.238zm-22.436 5.184c5.491-.129 11.29 1.518 17.393 4.941a34.807 34.807 0 0 0 7 7c3.558 6.538 4.892 13.538 4 21-2.128 6.114-5.795 11.281-11 15.5-15.596 8.077-28.93 5.577-40-7.5-4.127-9.758-3.96-19.424.5-29 6.714-7.773 14.083-11.754 22.107-11.941zm19.916 1.18a47.02 47.02 0 0 0 .487.308 47.02 47.02 0 0 1-.487-.309zm1.047.652a47.02 47.02 0 0 0 .414.248 47.02 47.02 0 0 1-.414-.248zM716 409.5a4.934 4.934 0 0 1 .303.72 4.934 4.934 0 0 1 .183.74 4.934 4.934 0 0 1 .014 1.54 19.22 19.22 0 0 1-.338-.006 19.22 19.22 0 0 0 .338.006c.074-.526.07-1.04-.014-1.54a4.863 4.863 0 0 0-.183-.74 5.226 5.226 0 0 0-.303-.72zm-4.176 2.393a19.22 19.22 0 0 0 .295.072 19.22 19.22 0 0 1-.295-.072zm1.781.369a19.22 19.22 0 0 0 .278.043 19.22 19.22 0 0 1-.278-.043zm1.131.144a19.22 19.22 0 0 0 .291.028 19.22 19.22 0 0 0 .336.025 19.22 19.22 0 0 1-.336-.025 19.22 19.22 0 0 1-.29-.028zm.69.057a19.22 19.22 0 0 0 .338.017 19.22 19.22 0 0 0 .336.012 19.22 19.22 0 0 1-.336-.012 19.22 19.22 0 0 1-.338-.017zm54.097 1.224a4.934 4.934 0 0 1 .016.165 4.934 4.934 0 0 0-.016-.164zm.01.981a4.934 4.934 0 0 1-.013.135 4.934 4.934 0 0 0 .013-.135zm-116.33.812a9.425 9.425 0 0 0 .15.178 9.425 9.425 0 0 1-.15-.178zm116.164.09a4.934 4.934 0 0 1-.04.139 4.934 4.934 0 0 0 .04-.139zm-115.666.47a9.425 9.425 0 0 0 .13.13 9.425 9.425 0 0 1-.13-.13zm115.483.064a4.934 4.934 0 0 1-.059.134 4.934 4.934 0 0 0 .059-.134zm-114.323.959a9.425 9.425 0 0 0 .18.13 9.425 9.425 0 0 1-.18-.13zm-1.75.414a50.44 50.44 0 0 1 .147 0 50.44 50.44 0 0 0-.537.007 50.44 50.44 0 0 0-.44.012 50.44 50.44 0 0 1 .44-.012 50.44 50.44 0 0 1 .39-.007zm-1.681.052a50.44 50.44 0 0 0-.444.024 50.44 50.44 0 0 1 .444-.024zm-.526.028a50.44 50.44 0 0 0-.36.021 50.44 50.44 0 0 1 .36-.021zm-2.396.195a50.44 50.44 0 0 0-.551.062 50.44 50.44 0 0 0-.437.053 50.44 50.44 0 0 1 .437-.053 50.44 50.44 0 0 1 .55-.062zm-1.82.227a50.44 50.44 0 0 0-.502.076 50.44 50.44 0 0 1 .501-.076zm-.508.076a50.44 50.44 0 0 0-.588.093 50.44 50.44 0 0 0-.404.069 50.44 50.44 0 0 1 .404-.069 50.44 50.44 0 0 1 .588-.093zm-2.99.55a50.44 50.44 0 0 0-.528.118 50.44 50.44 0 0 0-.484.111 50.44 50.44 0 0 1 .484-.111 50.44 50.44 0 0 1 .527-.118zm-5.57 5.657a67.175 67.175 0 0 0-.311.47 67.175 67.175 0 0 1 .31-.47zM729 437.5a17.341 17.341 0 0 1-.086.34 17.341 17.341 0 0 0 .086-.34zm4.33.928a170.755 170.755 0 0 0-.691.607 170.755 170.755 0 0 0-.823.73 170.755 170.755 0 0 1 .823-.73 170.755 170.755 0 0 1 .691-.607zm-5.074 1.414a17.341 17.341 0 0 1-.096.238 17.341 17.341 0 0 0 .096-.238zm-.305.724a17.341 17.341 0 0 1-.097.211 17.341 17.341 0 0 0 .097-.21zm-6.451 2.41a24.935 24.935 0 0 0 .006.07l-.006-.07zm3.355.645a6.802 6.802 0 0 0 .116.18 6.802 6.802 0 0 1-.116-.18zm.264.397a6.802 6.802 0 0 0 .106.14 6.802 6.802 0 0 0 .11.143 6.802 6.802 0 0 1-.11-.143 6.802 6.802 0 0 1-.106-.14z"/><path fill="#999" d="M520.209 301.5a6107.152 6107.152 0 0 0-111.709 1 256.396 256.396 0 0 1 20 18l7 10a166.431 166.431 0 0 0 9 15 53.76 53.76 0 0 0 2 8 71.088 71.088 0 0 0 3 9c2.038 6.134 3.038 12.467 3 19v19c-.617.111-1.117.444-1.5 1a345.467 345.467 0 0 0-1.5 13c-2.421 4.255-4.088 8.921-5 14l-4 8a4.933 4.933 0 0 0 1 2.5c1.952.366 3.618 1.199 5 2.5a106.13 106.13 0 0 1 16 11 85.582 85.582 0 0 1 10 12c3.595 4.095 6.261 8.762 8 14 1.418 8.782 4.084 17.115 8 25 18.382.245 37.049-.088 56-1 1.529.029 2.696.696 3.5 2 .359-3.044 1.026-3.378 2-1a86.621 86.621 0 0 0 6.5-23 211.592 211.592 0 0 0 9-15 47.229 47.229 0 0 1 11-12 57.487 57.487 0 0 1 10-8 50.51 50.51 0 0 0 12-6 125.187 125.187 0 0 1-9-20 5.727 5.727 0 0 0-1-3 3750.605 3750.605 0 0 0-3-18v-25a78.47 78.47 0 0 0 2-10c1.792-3.046 2.792-6.379 3-10 1.597-2.348 2.597-5.014 3-8 1.696-3.35 3.363-6.683 5-10 3.659-5.328 7.326-10.661 11-16a18268.026 18268.026 0 0 1 20-17 6107.152 6107.152 0 0 0-109.291-1zm4.586 18.988a4763.031 4763.031 0 0 0-13.615.04 4763.031 4763.031 0 0 1 13.615-.04zm32.518.067a4763.031 4763.031 0 0 1 7.785.049 4763.031 4763.031 0 0 0-7.785-.05zm-85.649.304a4763.031 4763.031 0 0 0-3.85.05 4763.031 4763.031 0 0 1 3.85-.05zm-32.963 11.563a3.647 3.647 0 0 1-.13.05 3.647 3.647 0 0 0 .13-.05zm2.154 1.2a6.802 6.802 0 0 0 .116.179 6.802 6.802 0 0 1-.116-.18zm.264.396a6.802 6.802 0 0 0 .106.14 6.802 6.802 0 0 0 .11.143 6.802 6.802 0 0 1-.11-.143 6.802 6.802 0 0 1-.106-.14zm148.195 21.632a38.715 38.715 0 0 0-.17.338 38.715 38.715 0 0 1 .17-.338zm-3.814.85a2173.982 2173.982 0 0 1-3.281.096 2173.982 2173.982 0 0 0 3.281-.096zm-8.637.244a2173.982 2173.982 0 0 1-2.226.057 2173.982 2173.982 0 0 0 2.226-.057zm-112 .057a2173.982 2173.982 0 0 0 3.03.074 2173.982 2173.982 0 0 1-3.03-.074zm104.18.135a2173.982 2173.982 0 0 1-3.14.068 2173.982 2173.982 0 0 1-3.452.07 2173.982 2173.982 0 0 0 3.451-.07 2173.982 2173.982 0 0 0 3.141-.068zm19.586.127a38.715 38.715 0 0 0-.184.404 38.715 38.715 0 0 1 .184-.404zm-27.115.029a2173.982 2173.982 0 0 1-3.332.062 2173.982 2173.982 0 0 0 3.332-.062zm-8.21.142a2173.982 2173.982 0 0 1-2.593.04 2173.982 2173.982 0 0 0 2.594-.04zm-3.566.053a2173.982 2173.982 0 0 1-3.312.043 2173.982 2173.982 0 0 0 3.312-.043zm-11.781.131a2173.982 2173.982 0 0 1-3.27.023 2173.982 2173.982 0 0 0 3.27-.023zm-22.477.07a2173.982 2173.982 0 0 0 2.485.004 2173.982 2173.982 0 0 1-2.485-.004zm-61.027 10.51a4.934 4.934 0 0 0-.006.162 4.934 4.934 0 0 0 0 .178 4.934 4.934 0 0 1 0-.178 4.934 4.934 0 0 1 .006-.162zm.108 1.281a4.934 4.934 0 0 0 .037.162 4.934 4.934 0 0 1-.037-.162zm.156.559a4.934 4.934 0 0 0 .054.15 4.934 4.934 0 0 1-.054-.15zm.203.498a4.934 4.934 0 0 0 .08.164 4.934 4.934 0 0 1-.08-.164zm29.883 12.041a4209.644 4209.644 0 0 1 .94 0 4225.132 4225.132 0 0 0-32.243.123 4209.644 4209.644 0 0 1 16.21-.092 4209.644 4209.644 0 0 1 15.093-.031zm1.367 0a4209.644 4209.644 0 0 1 15.883.031c-5.294-.02-10.588-.03-15.883-.031zm16.04.031a4209.644 4209.644 0 0 1 15.327.088c-5.107-.038-10.216-.068-15.326-.088zm16.417.098a4209.644 4209.644 0 0 1 15.277.146c-5.091-.058-10.183-.106-15.277-.146zm16.789.164a4209.644 4209.644 0 0 1 14.855.201c-4.95-.076-9.902-.143-14.855-.201zm15.639.213a4209.644 4209.644 0 0 1 15.582.271c-5.193-.1-10.387-.19-15.582-.271zm15.793.275A4209.644 4209.644 0 0 1 583 383.5a4192.33 4192.33 0 0 0-16.152-.342zm17.47 8.729-.015.224a98.432 98.432 0 0 0 .015-.224zm-120.554 1.093a2806.226 2806.226 0 0 1 6.783.006A2843.67 2843.67 0 0 0 454.5 393a2806.226 2806.226 0 0 1 9.264-.02zm7.17.006a2806.226 2806.226 0 0 1 16.003.08c-5.33-.041-10.665-.068-16.003-.08zm16.152.08a2806.226 2806.226 0 0 1 16.129.174 2806.226 2806.226 0 0 1 15.707.258 2811.25 2811.25 0 0 0-31.836-.432zm32.816.452a2806.226 2806.226 0 0 1 15.125.334c-5.039-.126-10.08-.236-15.125-.334zm16.12.359a2806.226 2806.226 0 0 1 14.822.414c-4.938-.15-9.88-.29-14.823-.414zm16.818.475a2806.226 2806.226 0 0 1 14.486.49c-4.826-.176-9.655-.34-14.486-.49zm15.666.535A2806.226 2806.226 0 0 1 584 395.5c-5.162-.22-10.326-.423-15.494-.613zM519.5 416.5a1067.752 1067.752 0 0 1 8.174.035 1067.752 1067.752 0 0 1 8.142.096 1081.252 1081.252 0 0 0-16.316-.131zm16.352.13a1067.752 1067.752 0 0 1 8.127.16 1067.752 1067.752 0 0 1 7.583.202 1070.56 1070.56 0 0 0-15.71-.361zm-85.813.358a99.899 99.899 0 0 1 .139.696 99.899 99.899 0 0 0-.139-.696zm102.535.035a1067.752 1067.752 0 0 1 7.227.25 1064.18 1064.18 0 0 0-7.227-.25zm-100.312.069a20.2 20.2 0 0 0-.07.187 20.2 20.2 0 0 1 .07-.187zm108.33.213a1067.752 1067.752 0 0 1 7.146.3c-2.38-.108-4.763-.208-7.146-.3zm8.484.363a1067.752 1067.752 0 0 1 7.194.36c-2.396-.13-4.794-.248-7.194-.36zm7.582.38a1067.752 1067.752 0 0 1 7.842.452c-2.612-.16-5.226-.31-7.842-.451zm-124.888.483a20.2 20.2 0 0 0-.065.223 20.2 20.2 0 0 1 .065-.223zm-.086.297a20.2 20.2 0 0 0-.088.32 20.2 20.2 0 0 1 .088-.32zm-.092.338a20.2 20.2 0 0 0-.084.322 20.2 20.2 0 0 1 .084-.322zm-1.053.47a99.899 99.899 0 0 1 .11.634 99.899 99.899 0 0 1 .134.82 99.899 99.899 0 0 0-.135-.82 99.899 99.899 0 0 0-.109-.633zm.701 1.104a20.2 20.2 0 0 0-.031.176 20.2 20.2 0 0 1 .031-.176zm138.518.998a33.385 33.385 0 0 0 .013.102l-.013-.102zm.416 2.262a33.385 33.385 0 0 0 .027.12l-.027-.12zm-1.584 6.398a9.258 9.258 0 0 1-.172.145 9.258 9.258 0 0 0 .172-.145zM455 440.5c2.482.156 4.967.302 7.455.44a1024.041 1024.041 0 0 1-7.455-.44zm120.545.44-.604.033a1024.041 1024.041 0 0 0 .604-.034zm-112.168.05c2.285.125 4.573.239 6.863.348a1024.041 1024.041 0 0 1-6.863-.348zm104.383.348c-.294.014-.587.03-.881.043a1024.041 1024.041 0 0 0 .88-.043zm-96.381.055c2.294.106 4.59.205 6.889.296a1024.041 1024.041 0 0 1-6.89-.296zm88.353.296-.92.038a1024.041 1024.041 0 0 0 .92-.038zm-80.45.041c2.354.091 4.712.174 7.072.249a1024.041 1024.041 0 0 1-7.073-.249zm72.364.249-.824.027a1024.041 1024.041 0 0 0 .824-.027zm-64.392.029A1027.068 1027.068 0 0 0 519 442.5a1024.041 1024.041 0 0 1-24.152-.285 1024.041 1024.041 0 0 1-7.594-.207zM475 453.5a1973.734 1973.734 0 0 1 11.16.156c-3.718-.062-7.437-.114-11.16-.156zm-7.57.027a3.647 3.647 0 0 0-.131.051 3.647 3.647 0 0 1 .13-.05zm18.763.13a1973.734 1973.734 0 0 1 11.034.216c-3.675-.082-7.354-.155-11.034-.217zm11.297.222a1973.734 1973.734 0 0 1 10.99.28 1973.734 1973.734 0 0 1 11.127.343 1977.853 1977.853 0 0 0-22.117-.623zm22.133.623a1973.734 1973.734 0 0 1 10.793.394c-3.596-.14-7.193-.273-10.793-.394zm11.453.42a1973.734 1973.734 0 0 1 9.772.412 1964.57 1964.57 0 0 0-9.772-.412zm11.697.498a1973.734 1973.734 0 0 1 9.155.44c-3.05-.154-6.102-.301-9.155-.44zm11.024.533A1973.734 1973.734 0 0 1 564 456.5c-3.399-.192-6.8-.373-10.203-.547zm1.43 24.354a5.576 5.576 0 0 0 .095.025 5.576 5.576 0 0 1-.095-.025zm.38.09a5.576 5.576 0 0 0 .104.019 5.576 5.576 0 0 1-.104-.02z"/><path fill="#f95" d="M692.834 318.484c-2.687.054-5.132.727-7.334 2.016-1.527-.073-2.527.594-3 2-4.552 1.43-7.552 4.43-9 9-1.466.847-2.3 2.18-2.5 4-.81 3.858-.643 7.524.5 11a50.464 50.464 0 0 1-.06-2.51 50.464 50.464 0 0 1 .062-2.496 50.34 50.34 0 0 0-.002 5.006c5.411 14.957 15.911 20.624 31.5 17 5.413-2.577 9.246-6.577 11.5-12 2.367-3.18 3.367-6.847 3-11 .42-3.874-.58-7.207-3-10a162.136 162.136 0 0 1 .207 2.98c-.06-.992-.129-1.985-.207-2.98-.919-2.589-2.586-4.589-5-6a22.581 22.581 0 0 0-8-4c-.992.172-1.658-.162-2-1-1.634-.661-3.467-.994-5.5-1a18.074 18.074 0 0 0-1.166-.016zM689.5 320.5a76.926 76.926 0 0 1 2.41.121 77.549 77.549 0 0 0-2.41-.121zm2.586.133a76.926 76.926 0 0 1 2.297.191c-.765-.075-1.53-.139-2.297-.191zm2.568.219a76.926 76.926 0 0 1 2.284.265c-.76-.1-1.522-.188-2.284-.265zm2.442.287a76.926 76.926 0 0 1 2.404.361 76.76 76.76 0 0 0-2.404-.361zm17.615 12.406a162.136 162.136 0 0 1 .15 2.975 162.136 162.136 0 0 1 .092 2.77 160.857 160.857 0 0 0-.242-5.745zm-41.203.285a12.992 12.992 0 0 1 0 .275 12.992 12.992 0 0 1-.006.258 12.992 12.992 0 0 0 .006-.258 12.992 12.992 0 0 0 0-.275zm-.041 1.184a12.992 12.992 0 0 1-.028.3 12.992 12.992 0 0 0 .028-.3zm-.115.974a12.992 12.992 0 0 1-.036.211 12.992 12.992 0 0 0 .036-.21zM672 336.5a50.811 50.811 0 0 0-.498 4.982 50.464 50.464 0 0 1 .187-2.492 50.464 50.464 0 0 1 .311-2.49zm1.121.63a12.992 12.992 0 0 1-.066.25 12.992 12.992 0 0 0 .066-.25zm-.166.6a12.992 12.992 0 0 1-.078.25 12.992 12.992 0 0 1-.086.256 12.992 12.992 0 0 0 .086-.256 12.992 12.992 0 0 0 .078-.25zm42.006 1.899A162.136 162.136 0 0 1 715 342.5c-.004-.955-.018-1.913-.04-2.871zm-4.441 4.646a8.43 8.43 0 0 1-.018.174 8.43 8.43 0 0 0 .018-.174zm-.14.92a8.43 8.43 0 0 1-.046.215 8.43 8.43 0 0 0 .047-.215zm-.12.506a8.43 8.43 0 0 1-.051.182 8.43 8.43 0 0 1-.07.224 8.43 8.43 0 0 0 .07-.224 8.43 8.43 0 0 0 .05-.182zm-3.28 12.791a83.298 83.298 0 0 0-.48.508 83.298 83.298 0 0 1 .48-.508z"/><path fill="#999" d="M345.865 324.004c-6.257-.039-11.379 2.794-15.365 8.496a14.093 14.093 0 0 1-.043.266 14.093 14.093 0 0 0 .043-.266c-2.087 1.085-3.42 2.751-4 5-1.473 2.517-2.14 5.35-2 8.5 3.304 19.663 14.637 26.663 34 21 12.354-7.909 15.354-18.409 9-31.5a29.812 29.812 0 0 1 .354 2.479c-.083-.813-.2-1.639-.354-2.479-.58-2.249-1.913-3.915-4-5-1.618-1.816-3.618-3.149-6-4-1.808.009-3.475-.491-5-1.5-2.338-.65-4.55-.983-6.635-.996zm-15.625 9.805a14.093 14.093 0 0 1-.05.195 14.093 14.093 0 0 0 .05-.195zm-.074.283a14.093 14.093 0 0 1-.066.234 14.093 14.093 0 0 0 .066-.234zm-.37 1.162a14.093 14.093 0 0 1-.1.267 14.093 14.093 0 0 0 .1-.267zm38.07 2.842a29.812 29.812 0 0 1 .081 1.027c-.02-.34-.048-.682-.082-1.027zm.097 1.32A29.812 29.812 0 0 1 368 340.5c-.004-.358-.018-.72-.037-1.084z"/><path fill="#ccc" d="M391.713 363.404c-2.03-.01-4.1.189-6.213.596-1.82.2-3.153 1.034-4 2.5-1.527-.073-2.527.594-3 2a514.367 514.367 0 0 1-1.14 1.53 514.367 514.367 0 0 0 1.14-1.53c-3.152 1.279-5.152 3.612-6 7-.262 1.478.071 2.811 1 4 5.939 4.887 12.605 6.387 20 4.5 8.493-3.507 12.16-9.34 11-17.5-4.06-2.041-8.323-3.073-12.787-3.096zM409.5 370.5c-.233 10.761-5.899 17.261-17 19.5-7.693 1.492-14.693-.008-21-4.5-.952-1.545-1.285-3.212-1-5-1.333 3.667-1.333 7.333 0 11 4.907 13.713 14.574 18.88 29 15.5 13.791-5.204 18.791-14.704 15-28.5-.879-3.201-2.545-5.868-5-8zm-31.355 4.732a3.647 3.647 0 0 1-.08.123 3.647 3.647 0 0 1-.094.131 3.647 3.647 0 0 1-.075.096 3.647 3.647 0 0 0 .075-.096 3.647 3.647 0 0 0 .093-.13 3.647 3.647 0 0 0 .08-.124zm-7.116 16.739a40.775 40.775 0 0 0 .682.582 40.775 40.775 0 0 1-.682-.582zM302.732 363.223c-7.971-.27-14.382 3.155-19.232 10.277-1.424 4.167-.258 7.5 3.5 10 1.073-.78 2.24-.613 3.5.5 14.572 2.775 22.905-2.725 25-16.5a53.398 53.398 0 0 0-7-3.5c-2.006-.456-3.928-.715-5.768-.777zM320.5 372.5c-6.078 16.036-17.412 21.369-34 16a3.647 3.647 0 0 0-1.5 1c-.93-2.052-2.43-3.552-4.5-4.5 1.228-1.49 1.228-2.99 0-4.5-1.226 3.867-1.226 7.867 0 12 5.41 12.882 15.077 17.716 29 14.5 13.883-4.936 18.883-14.436 15-28.5-.345-2.698-1.678-4.698-4-6zm-30.684 23.578a227.77 227.77 0 0 0 .955.233 227.77 227.77 0 0 1-.955-.233zm2.47.59a227.77 227.77 0 0 0 1.013.234 227.77 227.77 0 0 1-1.014-.234z"/><path fill="#424242" d="M315.5 367.5c2.667.667 4.333 2.333 5 5-6.078 16.036-17.412 21.369-34 16a3.647 3.647 0 0 0-1.5 1c-.93-2.052-2.43-3.552-4.5-4.5 1.228-1.49 1.228-2.99 0-4.5-.334-2.991.666-5.324 3-7-1.424 4.167-.258 7.5 3.5 10 1.073-.78 2.24-.613 3.5.5 14.572 2.775 22.905-2.725 25-16.5Zm89-1c2.254.624 3.921 1.957 5 4-.233 10.761-5.899 17.261-17 19.5-7.693 1.492-14.693-.008-21-4.5-.952-1.545-1.285-3.212-1-5-.38-2.198.287-3.865 2-5-.262 1.478.071 2.811 1 4 5.939 4.887 12.605 6.387 20 4.5 8.493-3.507 12.16-9.34 11-17.5Z"/><path fill="#00f" d="M646.174 363.59a43.545 43.545 0 0 0-8.674.91c-11.376 5.911-15.876 15.245-13.5 28a14.698 14.698 0 0 0 3.5 3c-.009 1.808.491 3.475 1.5 5 6.718 7.015 14.885 9.515 24.5 7.5 13.487-4.739 18.987-14.239 16.5-28.5-.374-1.991-1.207-3.658-2.5-5a34.362 34.362 0 0 1-7-8.5c-4.75-1.621-9.524-2.425-14.326-2.41zm22.13 17.644a73.314 73.314 0 0 1 .03.414 73.314 73.314 0 0 1 .045.72 73.314 73.314 0 0 0-.045-.72 73.314 73.314 0 0 0-.03-.414zm.124 2.088a73.314 73.314 0 0 1 .02.483 73.314 73.314 0 0 1 .023.72 73.314 73.314 0 0 0-.024-.72 73.314 73.314 0 0 0-.02-.483zm-5.12 14.48a3.647 3.647 0 0 0 .036.032l-.035-.031zm.356.276a3.647 3.647 0 0 0 .047.031 3.566 3.566 0 0 1-.047-.03zm-31.998 1.338a9.86 9.86 0 0 1 .133.012 9.86 9.86 0 0 0-.133-.012zm-1.703.025a9.86 9.86 0 0 0-.188.022 9.86 9.86 0 0 1 .188-.022zm2.973.15a9.86 9.86 0 0 1 .171.038 9.86 9.86 0 0 0-.171-.037zm.279.061a9.86 9.86 0 0 1 .215.055 9.86 9.86 0 0 0-.215-.055zm2.031 1.297a6.846 6.846 0 0 0-.16.336 6.846 6.846 0 0 1 .16-.336zm-.637 1.852a6.846 6.846 0 0 0-.062.383 6.846 6.846 0 0 1 .062-.383zm.078 1.746a52.667 52.667 0 0 0 .458.113 52.667 52.667 0 0 1-.457-.113zm7.891 1.361a52.667 52.667 0 0 0 .389.037 52.667 52.667 0 0 1-.389-.037zm7.703.168a52.667 52.667 0 0 1-.463.022 52.667 52.667 0 0 0 .463-.022zm-4.879.026a52.667 52.667 0 0 0 .993.03 52.667 52.667 0 0 1-.993-.03zm3.051.037a52.667 52.667 0 0 1-.447.006 52.667 52.667 0 0 0 .447-.006z"/><path fill="#b3b3b3" d="m795 388.5-1 13c-6.728 36.851-26.562 63.851-59.5 81-12.41 5.241-25.41 8.241-39 9a103.108 103.108 0 0 1-.5 32 172.012 172.012 0 0 1-11.5 28c1.048 6.478 3.048 12.478 6 18 .955 7.497 3.288 14.497 7 21 .83 6.16 2.83 11.827 6 17a250.163 250.163 0 0 0 9 19 125.342 125.342 0 0 1 3 8.5 112.08 112.08 0 0 1 7 11.5 157.427 157.427 0 0 1 8.5 12c1.451 1.964 3.284 3.297 5.5 4 1.762 3.237 4.429 5.571 8 7a32.7 32.7 0 0 1 .46.14 32.7 32.7 0 0 0-.46-.14c2.213 2.36 4.879 4.194 8 5.5 4.898 2.464 9.898 4.298 15 5.5 6.169 2.317 12.669 3.651 19.5 4l1.5-1c-2.729-1.867-2.396-2.867 1-3 2.713-9.409 7.547-17.742 14.5-25 1.617-3.806 2.45-7.806 2.5-12h4a8.43 8.43 0 0 1 .5-4c2.579-2.034 4.246-4.701 5-8 3.667-1.321 5.334-3.987 5-8 1.676-.561 3.009-1.561 4-3 .61-3.327 1.11-6.661 1.5-10a4.934 4.934 0 0 0 3-.5c.199-3.322 1.865-5.489 5-6.5a81.625 81.625 0 0 1 3-10 542.042 542.042 0 0 0 6.5-8 24.131 24.131 0 0 0 2.5-10h3a8.43 8.43 0 0 1 .5-4c2.655-2.42 4.489-5.42 5.5-9 2.919-1.357 4.419-3.69 4.5-7 1.011-.837 2.178-1.17 3.5-1 1.73-4.733 2.396-9.566 2-14.5a159.984 159.984 0 0 0-6-21.5 513.065 513.065 0 0 0-6.5-22c-.383-.556-.883-.889-1.5-1a21.028 21.028 0 0 0 .137 1.049 21.028 21.028 0 0 1-.137-1.049 170.782 170.782 0 0 1-7.5-22c-.716-2.379-1.883-4.379-3.5-6a4834.85 4834.85 0 0 1-3-8c-.457-.798-1.124-1.131-2-1a16.994 16.994 0 0 0-2-6.5c-3.3-5.46-6.3-10.96-9-16.5a149.463 149.463 0 0 0-12-20c-.579-2.831-1.912-5.164-4-7a313.366 313.366 0 0 0-12.5-20zm12.475 21.045a2.428 2.428 0 0 1-.034.121 2.428 2.428 0 0 1-.04.125 2.428 2.428 0 0 1-.042.104 2.428 2.428 0 0 0 .041-.104 2.428 2.428 0 0 0 .041-.125 2.428 2.428 0 0 0 .034-.121zm7.564 16.965a66.87 66.87 0 0 0-.166.574 66.87 66.87 0 0 1 .166-.574zm-26.945 7.515a10.258 10.258 0 0 0 .18.74 10.258 10.258 0 0 1-.18-.74zm-.266.502a32.444 32.444 0 0 1-.074.389 32.444 32.444 0 0 1-.096.469 32.444 32.444 0 0 0 .096-.469 32.444 32.444 0 0 0 .074-.389zm21.555 1.5a10.776 10.776 0 0 1-.115.221 10.776 10.776 0 0 0 .115-.22zm-.393.721a10.776 10.776 0 0 1-.144.234 10.776 10.776 0 0 0 .144-.234zm-28.19 14.848a66.678 66.678 0 0 1-.179.506 66.678 66.678 0 0 1-.219.597 66.678 66.678 0 0 0 .22-.597 66.678 66.678 0 0 0 .179-.506zm-.923 2.472a66.678 66.678 0 0 1-.238.592 66.678 66.678 0 0 0 .238-.592zm35.043 3.81a70.523 70.523 0 0 1-.088.518 70.523 70.523 0 0 0 .088-.517zm-20.625 2.01a40.98 40.98 0 0 0-.246.48 40.98 40.98 0 0 1 .246-.48zm20.125.698a70.523 70.523 0 0 1-.123.584 70.523 70.523 0 0 1-.15.69 70.523 70.523 0 0 0 .15-.69 70.523 70.523 0 0 0 .123-.584zm-43.88 7.643a29.825 29.825 0 0 1-.124.296 29.825 29.825 0 0 1-.182.422 29.825 29.825 0 0 0 .182-.422 29.825 29.825 0 0 0 .123-.296zm-.519 1.189a29.825 29.825 0 0 1-.167.363 29.825 29.825 0 0 1-.202.414 29.825 29.825 0 0 0 .202-.414 29.825 29.825 0 0 0 .167-.363zm20.713.031a40.98 40.98 0 0 0-.12.526 40.98 40.98 0 0 0-.114.525 40.98 40.98 0 0 1 .113-.525 40.98 40.98 0 0 1 .121-.526zm13.9 4.01a91.274 91.274 0 0 0-.157.584 91.274 91.274 0 0 1 .158-.584zm-.794 3.113a91.274 91.274 0 0 0-.182.783 91.274 91.274 0 0 1 .182-.783zm-2.133 5.188a7.248 7.248 0 0 1-.14.103 7.248 7.248 0 0 0 .14-.103zm-63.969 4.553a36.224 36.224 0 0 1-.267.431 36.224 36.224 0 0 0 .267-.432zm98.04 8.787a18.346 18.346 0 0 0-.094.24 18.346 18.346 0 0 1 .093-.24zm-.923 3.103a18.346 18.346 0 0 0-.05.266 18.346 18.346 0 0 1 .05-.266zm-.33 2.496a18.346 18.346 0 0 0-.017.319 18.346 18.346 0 0 1 .017-.319zm-.03.72a18.346 18.346 0 0 0-.005.27 18.346 18.346 0 0 1 .004-.27zm-26.061.935a197.339 197.339 0 0 0-.543 1.048 197.339 197.339 0 0 0-.358.698 197.339 197.339 0 0 1 .358-.698 197.339 197.339 0 0 1 .543-1.048zm-60.914 4.921a8.43 8.43 0 0 1-.018.174 8.43 8.43 0 0 0 .018-.174zm39 0a8.43 8.43 0 0 1-.018.174 8.43 8.43 0 0 0 .018-.174zm60.91.82a223.13 223.13 0 0 1-.573 1.003 223.13 223.13 0 0 0 .573-1.002zm-100.05.1a8.43 8.43 0 0 1-.046.215 8.43 8.43 0 0 0 .047-.215zm39 0a8.43 8.43 0 0 1-.046.215 8.43 8.43 0 0 0 .047-.215zm-39.12.506a8.43 8.43 0 0 1-.051.182 8.43 8.43 0 0 1-.07.224 8.43 8.43 0 0 0 .07-.224 8.43 8.43 0 0 0 .05-.182zm39 0a8.43 8.43 0 0 1-.051.182 8.43 8.43 0 0 1-.07.224 8.43 8.43 0 0 0 .07-.224 8.43 8.43 0 0 0 .05-.182zm59.248 2.711a223.13 223.13 0 0 1-.53.895 223.13 223.13 0 0 0 .53-.895zm-61.774 1.494a33.51 33.51 0 0 0-.207.36 33.51 33.51 0 0 1 .207-.36zm-.533.955a33.51 33.51 0 0 0-.156.293 33.51 33.51 0 0 1 .156-.293zm60.272.932a223.13 223.13 0 0 1-.479.775 223.13 223.13 0 0 0 .479-.775zm-99.688.14a42.478 42.478 0 0 0-.205.419 42.478 42.478 0 0 1 .205-.418zm-.486 1.014a42.478 42.478 0 0 0-.164.356 42.478 42.478 0 0 1 .164-.356zm-25.799.553c-.23 1.48-.428 2.964-.594 4.453a104.618 104.618 0 0 1 .594-4.453zm124.148 1.209a223.13 223.13 0 0 1-.648 1.018 223.13 223.13 0 0 0 .648-1.018zm-99.408.729a42.478 42.478 0 0 0-.195.511 42.478 42.478 0 0 0-.188.514 42.478 42.478 0 0 0-.181.517 42.478 42.478 0 0 0-.176.52 42.478 42.478 0 0 1 .176-.52 42.478 42.478 0 0 1 .181-.517 42.478 42.478 0 0 1 .188-.514 42.478 42.478 0 0 1 .195-.511zm38.817.304a33.51 33.51 0 0 0-.123.363 33.51 33.51 0 0 0-.137.416 33.51 33.51 0 0 1 .137-.416 33.51 33.51 0 0 1 .123-.363zm59.25 1.278a15.418 15.418 0 0 0-.098.29 15.418 15.418 0 0 0-.092.288 15.418 15.418 0 0 1 .092-.287 15.418 15.418 0 0 1 .098-.291zm-.305.97a15.418 15.418 0 0 0-.047.178 15.418 15.418 0 0 1 .047-.178zm-60.482.008a6.846 6.846 0 0 1-.204.08 6.846 6.846 0 0 0 .204-.08zm-62.622.025a105.04 105.04 0 0 0-.398 4.477 104.618 104.618 0 0 1 .398-4.477zm79.602.477a99.1 99.1 0 0 1-.191.814 99.1 99.1 0 0 0 .191-.814zm43.146 1.102a15.418 15.418 0 0 0-.042.275 15.418 15.418 0 0 0-.04.287 15.418 15.418 0 0 1 .04-.287 15.418 15.418 0 0 1 .042-.275zm-43.74 1.337a99.1 99.1 0 0 1-.195.75 99.1 99.1 0 0 0 .195-.75zm60.94.276a53.761 53.761 0 0 1-.102.453 53.761 53.761 0 0 0 .102-.453zm-.117.523a53.761 53.761 0 0 1-.135.567 53.761 53.761 0 0 1-.149.593 53.761 53.761 0 0 0 .149-.593 53.761 53.761 0 0 0 .135-.567zm-17.272 1.133a15.418 15.418 0 0 0 .018.299 15.418 15.418 0 0 0 .025.33 15.418 15.418 0 0 1-.025-.33 15.418 15.418 0 0 1-.018-.299zm-102.537.008a70.523 70.523 0 0 1-.088.517 70.523 70.523 0 0 0 .088-.517zm119.523.027a53.761 53.761 0 0 1-.152.586 53.761 53.761 0 0 0 .152-.586zm-.158.606a53.761 53.761 0 0 1-.142.527 53.761 53.761 0 0 0 .142-.527zm-143.978.508a15.418 15.418 0 0 0-.098.29 15.418 15.418 0 0 0-.092.288 15.418 15.418 0 0 1 .092-.287 15.418 15.418 0 0 1 .098-.291zm143.804.128a53.761 53.761 0 0 1-.148.522 53.761 53.761 0 0 0 .148-.522zm-.164.569a53.761 53.761 0 0 1-.146.498 53.761 53.761 0 0 0 .146-.498zm-143.945.273a15.418 15.418 0 0 0-.047.178 15.418 15.418 0 0 1 .047-.178zm143.76.35a53.761 53.761 0 0 1-.157.502 53.761 53.761 0 0 0 .157-.502zm-119.342.246a70.523 70.523 0 0 1-.123.584 70.523 70.523 0 0 1-.15.69 70.523 70.523 0 0 0 .15-.69 70.523 70.523 0 0 0 .123-.584zm19.023.228a267.475 267.475 0 0 0-.5 1.258 267.475 267.475 0 0 0-.502 1.282 267.475 267.475 0 0 1 .502-1.282 267.475 267.475 0 0 1 .5-1.258zm-43.797.788a15.418 15.418 0 0 0-.042.275 15.418 15.418 0 0 0-.04.287 15.418 15.418 0 0 1 .04-.287 15.418 15.418 0 0 1 .042-.275zm143.342 1.076a53.761 53.761 0 0 1-.19.521 53.761 53.761 0 0 0 .19-.521zm-.468 1.265a53.761 53.761 0 0 1-.16.409 53.761 53.761 0 0 1-.188.47 53.761 53.761 0 0 0 .187-.47 53.761 53.761 0 0 0 .16-.409zm-143.063.928a15.418 15.418 0 0 0 .018.299 15.418 15.418 0 0 0 .025.33 15.418 15.418 0 0 1-.025-.33 15.418 15.418 0 0 1-.018-.299zm-2.957.629a66.568 66.568 0 0 1-.193.658 66.568 66.568 0 0 1-.2.656 66.568 66.568 0 0 0 .2-.656 66.568 66.568 0 0 0 .193-.658zm144.857 1.225a53.761 53.761 0 0 1-.197.431 53.761 53.761 0 0 0 .197-.431zm-145.466.78a66.568 66.568 0 0 1-.202.616 66.568 66.568 0 0 0 .202-.615zm143.922.792a18.08 18.08 0 0 1-.229.139 18.08 18.08 0 0 0 .229-.14zm-60.155.484a99.1 99.1 0 0 1-.265.643 99.1 99.1 0 0 0 .265-.643zm59.203.063a18.08 18.08 0 0 1-.242.127 18.08 18.08 0 0 0 .242-.127zm-144.09 1.863a66.568 66.568 0 0 1-.246.64 66.568 66.568 0 0 1-.226.573 66.568 66.568 0 0 0 .226-.572 66.568 66.568 0 0 0 .246-.641zm142.008.217a141.074 141.074 0 0 0-.357.72 141.074 141.074 0 0 1 .357-.72zm-121.318.717a30.465 30.465 0 0 1-.014.25 30.465 30.465 0 0 1-.031.455 30.465 30.465 0 0 0 .031-.455 30.465 30.465 0 0 0 .014-.25zm-.203 2.26a30.465 30.465 0 0 1-.04.298 30.465 30.465 0 0 0 .04-.299zm-.127.898a30.465 30.465 0 0 1-.053.318 30.465 30.465 0 0 0 .053-.318zm39.248.008a28.043 28.043 0 0 0-.108.279 28.043 28.043 0 0 1 .108-.28zm79.785 1.652a141.074 141.074 0 0 0-.31.703 141.074 141.074 0 0 0-.399.916 141.074 141.074 0 0 0-.371.867 141.074 141.074 0 0 1 .371-.867 141.074 141.074 0 0 1 .399-.916 141.074 141.074 0 0 1 .31-.703zm-80.639.877a28.043 28.043 0 0 0-.086.31 28.043 28.043 0 0 1 .086-.31zm-.23.861a28.043 28.043 0 0 0-.106.432 28.043 28.043 0 0 0-.097.435 28.043 28.043 0 0 0-.092.436 28.043 28.043 0 0 1 .092-.436 28.043 28.043 0 0 1 .097-.435 28.043 28.043 0 0 1 .106-.432zM725.004 548a26.585 26.585 0 0 0-.281.15 26.585 26.585 0 0 1 .28-.15zm119.607.076a141.074 141.074 0 0 0-.25.61 141.074 141.074 0 0 1 .25-.61zm-120.328.319a26.585 26.585 0 0 0-.316.181 26.585 26.585 0 0 1 .316-.181zm37.237 1.88a8.43 8.43 0 0 1-.018.174 8.43 8.43 0 0 0 .018-.174zm-19.647.364a97.724 97.724 0 0 0-.324.601 97.724 97.724 0 0 1 .324-.601zm39.984.443a157.71 157.71 0 0 1-.502.66 157.71 157.71 0 0 1-.503.653 157.71 157.71 0 0 0 .503-.653 157.71 157.71 0 0 0 .502-.66zm-20.476.113a8.43 8.43 0 0 1-.047.215 8.43 8.43 0 0 0 .047-.215zm-.121.506a8.43 8.43 0 0 1-.051.182 8.43 8.43 0 0 1-.07.224 8.43 8.43 0 0 0 .07-.224 8.43 8.43 0 0 0 .05-.182zm39.99 5.649a26.11 26.11 0 0 1-.234.318 26.11 26.11 0 0 0 .234-.318zm-62.732.086a97.724 97.724 0 0 0-.237.533 97.724 97.724 0 0 1 .237-.533zM775 559.5a21.438 21.438 0 0 1 .041.387 21.438 21.438 0 0 0-.041-.387zm-17.861.027a69.749 69.749 0 0 0-.213.452 69.749 69.749 0 0 1 .213-.452zm-40.63.436a177.177 177.177 0 0 0-.302.773 177.177 177.177 0 0 1 .303-.773zm118.991.537a17.767 17.767 0 0 1-.008.332 17.767 17.767 0 0 0 .008-.332zm-98.873 1.47a97.724 97.724 0 0 0-.234.614 97.724 97.724 0 0 1 .234-.613zm98.795.009a17.767 17.767 0 0 1-.022.216 17.767 17.767 0 0 0 .022-.216zm-60.276.021a21.438 21.438 0 0 1-.001.219 21.438 21.438 0 0 0 .001-.219zm-81.39.133a135.16 135.16 0 0 0-.315.832 135.16 135.16 0 0 1 .315-.832zm141.629.199a17.767 17.767 0 0 1-.028.217 17.767 17.767 0 0 0 .028-.217zm-.153 1.057a17.767 17.767 0 0 1-.044.236 17.767 17.767 0 0 0 .044-.236zm-142.187.642a135.16 135.16 0 0 0-.277.77 135.16 135.16 0 0 1 .277-.77zm142.053.04a17.767 17.767 0 0 1-.043.19 17.767 17.767 0 0 0 .043-.19zm-100.866 1.784a3.647 3.647 0 0 1 .123.08 3.647 3.647 0 0 1 .131.094 3.647 3.647 0 0 0-.13-.093 3.647 3.647 0 0 0-.124-.08zm80.606.424a27.285 27.285 0 0 1-.086.36 27.285 27.285 0 0 0 .086-.36zm19.46.451a17.767 17.767 0 0 1-.122.311 17.767 17.767 0 0 0 .123-.31zm-.138.35a17.767 17.767 0 0 1-.129.303 17.767 17.767 0 0 0 .13-.303zm-142.387.594a135.16 135.16 0 0 0-.273.826 135.16 135.16 0 0 1 .273-.826zm142.106.049a17.767 17.767 0 0 1-.133.283 17.767 17.767 0 0 0 .133-.283zm-8.377 8.248a31.284 31.284 0 0 1-.004.465 31.284 31.284 0 0 0 .004-.465zm-.004.486a31.284 31.284 0 0 1-.01.398 31.284 31.284 0 0 0 .01-.398zm-.035 1.031a31.284 31.284 0 0 1-.016.29 31.284 31.284 0 0 0 .016-.29zm-.06.914a31.284 31.284 0 0 1-.026.327 31.284 31.284 0 0 0 .025-.327zm-.284 2.399a31.284 31.284 0 0 1-.035.224 31.284 31.284 0 0 0 .035-.224zm-119.244.242a58.156 58.156 0 0 1-.277.578 58.156 58.156 0 0 0 .277-.578zm118.447 3.39a31.284 31.284 0 0 1-.095.333 31.284 31.284 0 0 0 .095-.332zm-120.207.03a58.156 58.156 0 0 1-.314.558 58.156 58.156 0 0 0 .314-.558zm99.58 1.234a14.489 14.489 0 0 0-.24.166 14.489 14.489 0 0 1 .24-.166zm-66.18 2.858a33.724 33.724 0 0 1-.003.41 33.724 33.724 0 0 0 .004-.41zm-36.452.802a58.156 58.156 0 0 1-.266.38 58.156 58.156 0 0 0 .265-.38zm36.433.24a33.724 33.724 0 0 1-.012.344 33.724 33.724 0 0 0 .012-.343zm-20.035 1.044a30.465 30.465 0 0 1-.014.25 30.465 30.465 0 0 1-.031.455 30.465 30.465 0 0 0 .031-.455 30.465 30.465 0 0 0 .014-.25zm82.996.777a9.258 9.258 0 0 0 .145.172 9.258 9.258 0 0 1-.145-.172zm-83.2 1.482a30.465 30.465 0 0 1-.038.3 30.465 30.465 0 0 0 .039-.3zm101.243.1a4.934 4.934 0 0 1-.164.08 4.934 4.934 0 0 0 .164-.08zm-.396.184a4.934 4.934 0 0 1-.116.045 4.934 4.934 0 0 1-.15.054 4.934 4.934 0 0 0 .15-.054 4.934 4.934 0 0 0 .116-.045zm-80.938.16a33.724 33.724 0 0 1-.074.482 33.724 33.724 0 0 0 .074-.482zm19.965.049a87.006 87.006 0 0 0-.526.552 87.006 87.006 0 0 1 .526-.552zm60.31.01a4.934 4.934 0 0 1-.162.036 4.934 4.934 0 0 0 .162-.037zm-.388.081a4.934 4.934 0 0 1-.106.018 4.934 4.934 0 0 0 .106-.018zm-1.055.063a4.934 4.934 0 0 0 .162.006 4.934 4.934 0 0 0 .178 0 4.934 4.934 0 0 1-.178 0 4.934 4.934 0 0 1-.162-.006zm.506 0a4.934 4.934 0 0 1-.147.006 4.934 4.934 0 0 0 .147-.006zm-99.373.252a30.465 30.465 0 0 1-.053.318 30.465 30.465 0 0 0 .053-.318zm19.88.508a33.724 33.724 0 0 1-.087.48 33.724 33.724 0 0 0 .088-.48zm18.448.875a87.006 87.006 0 0 0-.406.45 87.006 87.006 0 0 1 .406-.45zm-18.656.214a33.724 33.724 0 0 1-.074.348 33.724 33.724 0 0 0 .074-.348zm-.297 1.3a33.724 33.724 0 0 1-.123.472 33.724 33.724 0 0 0 .123-.473zm42.25.75a4.934 4.934 0 0 1 .084.001 4.934 4.934 0 0 1 .162.006 4.934 4.934 0 0 0-.162-.006 4.934 4.934 0 0 0-.178 0 4.934 4.934 0 0 1 .094-.002zm-1.035.115a4.934 4.934 0 0 0-.162.037 4.934 4.934 0 0 1 .162-.037zm-.559.156a4.934 4.934 0 0 0-.15.054 4.934 4.934 0 0 1 .15-.054zm-.498.203a4.934 4.934 0 0 0-.164.08 4.934 4.934 0 0 1 .164-.08zm-23.719.154a87.006 87.006 0 0 0-.412.5 87.006 87.006 0 0 1 .412-.5zm-.55.668a87.006 87.006 0 0 0-.407.504 87.006 87.006 0 0 1 .407-.504zm23.416 1.106a20.431 20.431 0 0 0-.098.31 20.431 20.431 0 0 1 .098-.31zm-.579 2.23a20.431 20.431 0 0 0-.056.295 20.431 20.431 0 0 1 .056-.295zM771 605.5a112.838 112.838 0 0 1-.275.85 112.838 112.838 0 0 1-.207.623 112.838 112.838 0 0 0 .207-.623 112.838 112.838 0 0 0 .275-.85zm-43.498.47a31.284 31.284 0 0 1-.004.466 31.284 31.284 0 0 0 .004-.465zm-.04 1.518a31.284 31.284 0 0 1-.015.29 31.284 31.284 0 0 0 .016-.29zm-.06.914a31.284 31.284 0 0 1-.025.327 31.284 31.284 0 0 0 .025-.327zm60.696 3.223a26.6 26.6 0 0 0-.327.285 26.6 26.6 0 0 1 .327-.285zm-1.653 1.545a26.6 26.6 0 0 0-.236.244 26.6 26.6 0 0 1 .236-.244zm-18.84 1.547a112.838 112.838 0 0 1-.244.578 112.838 112.838 0 0 0 .244-.578zm-.703 1.642a112.838 112.838 0 0 1-.273.621 112.838 112.838 0 0 0 .273-.62zm-.416.942a112.838 112.838 0 0 1-.312.69 112.838 112.838 0 0 0 .312-.69zm-44.361 1.517a21.028 21.028 0 0 1-.15.639 21.028 21.028 0 0 0 .15-.639zm43.625.09a112.838 112.838 0 0 1-.281.602 112.838 112.838 0 0 0 .281-.602zm-43.826.74a21.028 21.028 0 0 1-.069.258 21.028 21.028 0 0 0 .069-.258zm-.287.998a21.028 21.028 0 0 1-.12.366 21.028 21.028 0 0 0 .12-.366zm59.683 2.657a11.38 11.38 0 0 1-.218.136 11.38 11.38 0 0 0 .218-.136zm-.492 1.224a32.444 32.444 0 0 1-.074.389 32.444 32.444 0 0 1-.096.469 32.444 32.444 0 0 0 .096-.469 32.444 32.444 0 0 0 .074-.389zm-43.908 2.352a70.523 70.523 0 0 1-.088.517 70.523 70.523 0 0 0 .088-.517zm-.5 2.707a70.523 70.523 0 0 1-.123.584 70.523 70.523 0 0 1-.15.69 70.523 70.523 0 0 0 .15-.69 70.523 70.523 0 0 0 .123-.584zm19.822 3.422a48.419 48.419 0 0 1-.187.553 48.419 48.419 0 0 1-.194.552 48.419 48.419 0 0 1-.2.55 48.419 48.419 0 0 0 .2-.55 48.419 48.419 0 0 0 .194-.552 48.419 48.419 0 0 0 .187-.553zm-1.23 3.3a48.419 48.419 0 0 1-.133.317 48.419 48.419 0 0 0 .133-.316zm-26.2 6.444a19.887 19.887 0 0 0-.175.146 19.887 19.887 0 0 1 .176-.146zm-1.013.896a19.887 19.887 0 0 0-.27.26 19.887 19.887 0 0 1 .27-.26zm38.703.323a31.284 31.284 0 0 1-.004.465 31.284 31.284 0 0 0 .004-.465zm-.04 1.517a31.284 31.284 0 0 1-.015.29 31.284 31.284 0 0 0 .016-.29zm-.06.914a31.284 31.284 0 0 1-.025.327 31.284 31.284 0 0 0 .025-.327zm18.934 4.496a81.859 81.859 0 0 1-.324.659 81.859 81.859 0 0 1-.282.56 81.859 81.859 0 0 0 .282-.56 81.859 81.859 0 0 0 .324-.659zm-1.37 2.688a81.859 81.859 0 0 1-.251.47 81.859 81.859 0 0 0 .252-.47zM779.5 661a4.934 4.934 0 0 1-.164.08 4.934 4.934 0 0 0 .164-.08zm-.396.184a4.934 4.934 0 0 1-.116.045 4.934 4.934 0 0 1-.15.054 4.934 4.934 0 0 0 .15-.054 4.934 4.934 0 0 0 .116-.045zm-.663.218a4.934 4.934 0 0 1-.162.037 4.934 4.934 0 0 0 .162-.037zm-.388.082a4.934 4.934 0 0 1-.106.018 4.934 4.934 0 0 0 .106-.018zm-1.055.063a4.934 4.934 0 0 0 .162.006 4.934 4.934 0 0 0 .178 0 4.934 4.934 0 0 1-.178 0 4.934 4.934 0 0 1-.162-.006zm.506 0a4.934 4.934 0 0 1-.147.006 4.934 4.934 0 0 0 .147-.006zm-19.129 1.219a62.19 62.19 0 0 1-.285.377 62.19 62.19 0 0 0 .285-.377zm-2.455 3.062a62.19 62.19 0 0 1-.379.44 62.19 62.19 0 0 1-.42.478 62.19 62.19 0 0 0 .42-.478 62.19 62.19 0 0 0 .379-.44zm-10.1 4.457a32.7 32.7 0 0 1 .407.156 32.7 32.7 0 0 0-.407-.156zm3.076 1.352a32.7 32.7 0 0 1 .391.2 32.7 32.7 0 0 0-.39-.2z"/><path fill="#999" d="M346.441 407.3c-1.931.031-3.911.264-5.941.7-1.82.2-3.153 1.034-4 2.5-3.913.95-6.58 3.283-8 7-1.406.473-2.073 1.473-2 3-.768.763-1.268 1.763-1.5 3-1.508 19.158 7.326 28.658 26.5 28.5 14.453-3.472 20.62-12.639 18.5-27.5-.472-3.61-1.972-6.61-4.5-9a6.547 6.547 0 0 0-3-3c-4.912-3.558-10.264-5.29-16.059-5.2zm9.19 2.952a6.547 6.547 0 0 0 .08.143 6.547 6.547 0 0 1-.08-.143zm2.17 2.352a6.547 6.547 0 0 0 .135.084 6.547 6.547 0 0 1-.135-.084zm7.797 3.242a36.87 36.87 0 0 0 .084.29 36.87 36.87 0 0 1-.084-.29zm.138.474a36.87 36.87 0 0 0 .121.39 36.87 36.87 0 0 0 .157.487 36.87 36.87 0 0 0 .144.43 36.87 36.87 0 0 1-.144-.43 36.87 36.87 0 0 1-.157-.486 36.87 36.87 0 0 1-.12-.39zm.461 1.426a36.87 36.87 0 0 0 .125.352 36.87 36.87 0 0 1-.125-.352zm-31.496 6.676a3.647 3.647 0 0 1-.13.05 3.647 3.647 0 0 0 .13-.05z"/><path fill="#d40000" d="M735.254 363.496c-1.892.03-3.81.198-5.754.504-.556.383-.889.883-1 1.5a30.137 30.137 0 0 0-6 3.5c-1.323.816-1.989 1.983-2 3.5-1.406.473-2.073 1.473-2 3-1.567 1.181-2.401 2.847-2.5 5-.808 3.527-.641 6.86.5 10a51.545 51.545 0 0 1-.004-.414 51.545 51.545 0 0 0 .004.414c.838.342 1.172 1.008 1 2 .255 2.516 1.089 4.85 2.5 7 9.369 9.802 20.203 11.636 32.5 5.5a14.698 14.698 0 0 0 3-3.5 30.233 30.233 0 0 0 3.5-3c3.356-6.237 4.356-12.903 3-20-.608-1.566-1.442-2.9-2.5-4-.58-2.249-1.913-3.915-4-5a27.643 27.643 0 0 0-9-5h-2a75.46 75.46 0 0 0-1.344-.047 75.46 75.46 0 0 1 1.344.047 37.144 37.144 0 0 0-9.246-1.004zm-4.158 1.61a75.46 75.46 0 0 0-.957.134 75.46 75.46 0 0 1 .957-.135zm-10.764 8.208a85.398 85.398 0 0 1-.148.702 85.398 85.398 0 0 0 .148-.702zm-1.857 2.278a51.545 51.545 0 0 0-.163.58 51.545 51.545 0 0 1 .163-.58zm1.138.86a85.398 85.398 0 0 1-.123.491 85.398 85.398 0 0 0 .123-.492zm35.17 1.382a27.395 27.395 0 0 1 .125.396 27.395 27.395 0 0 0-.125-.396zm-37.207 1.406a51.545 51.545 0 0 0-.094.457 51.545 51.545 0 0 1 .094-.457zm-.674 4.033a51.545 51.545 0 0 0-.072.598 51.545 51.545 0 0 1 .072-.598zm12.604.85a169.751 169.751 0 0 0 .765.223 169.751 169.751 0 0 1-.765-.223zm-12.895 2.154a51.545 51.545 0 0 0-.037.602 51.545 51.545 0 0 1 .037-.602zm-.078 1.489a51.545 51.545 0 0 0-.012.32 51.545 51.545 0 0 1 .012-.32zm18.801 3.644a405.14 405.14 0 0 1 1.514.008 405.14 405.14 0 0 1 1.19.012 405.14 405.14 0 0 0-1.19-.012 405.14 405.14 0 0 0-1.514-.008zm-5.871.02a405.14 405.14 0 0 0-1.008.011 405.14 405.14 0 0 1 1.008-.011zm-7.188 5.05a8.43 8.43 0 0 1 .174.018 8.43 8.43 0 0 0-.174-.018zm.92.14a8.43 8.43 0 0 1 .215.046 8.43 8.43 0 0 0-.215-.047zm.506.12a8.43 8.43 0 0 1 .182.051 8.43 8.43 0 0 1 .224.07 8.43 8.43 0 0 0-.224-.07 8.43 8.43 0 0 0-.182-.05zm12.299.76a98.623 98.623 0 0 1-.803.232 98.623 98.623 0 0 0 .803-.232zm.338.281a3.943 3.943 0 0 0 .098.07 3.943 3.943 0 0 1-.098-.07zm.289.196a3.943 3.943 0 0 0 .123.072 3.943 3.943 0 0 0 .121.066 3.943 3.943 0 0 1-.121-.066 3.943 3.943 0 0 1-.123-.072zm-2.414.03a98.623 98.623 0 0 1-.625.17 98.623 98.623 0 0 0 .625-.17zm3.308.376a3.943 3.943 0 0 0 .122.035 3.943 3.943 0 0 1-.122-.035zm.315.084a3.943 3.943 0 0 0 .164.033 3.943 3.943 0 0 1-.164-.033z"/><path fill="gray" d="M243 385.5a495.712 495.712 0 0 0-39.5 68c-.477 1.505-.92 2.995-1.33 4.47a126.015 126.015 0 0 1 1.33-4.47c-4.056 6.118-7.056 12.784-9 20-5.018 9.041-8.685 18.708-11 29a77.078 77.078 0 0 0-5 13 307.018 307.018 0 0 1-6.5 23 74.058 74.058 0 0 0-1.5 12c-.801 1.542-1.134 3.208-1 5-1.463 2.703-2.296 5.703-2.5 9a164.02 164.02 0 0 0-1.5 18v6c-1.207 9.036-.873 18.036 1 27a49.273 49.273 0 0 0 1 11 23.579 23.579 0 0 1 3 8 82.239 82.239 0 0 0 5 11 10.134 10.134 0 0 0 1.5 4c2.993 2.693 5.493 5.693 7.5 9 3.055 5.42 7.055 10.087 12 14 .444 1.613 1.444 2.78 3 3.5a32.5 32.5 0 0 1 7 3c1.667.667 3.333.667 5 0 6.942-5.96 14.609-10.626 23-14a26.585 26.585 0 0 1 2-3.5 252.614 252.614 0 0 0 14-7c3.153-3.749 7.153-6.249 12-7.5a223.882 223.882 0 0 0 16-11.5c.951.826 1.951.992 3 .5l2-4a47.2 47.2 0 0 1 13-6.5c.886-.825 1.219-1.825 1-3a20.093 20.093 0 0 0 6-1.5c.837-1.011 1.17-2.178 1-3.5h6c-.17-1.322.163-2.489 1-3.5a44.917 44.917 0 0 0 9-4 84.788 84.788 0 0 1 12.5-9.5l1 2a203.055 203.055 0 0 0 13.5-30 144.662 144.662 0 0 0 5-16c3.36-6.455 2.027-11.788-4-16a3426.51 3426.51 0 0 0-7-22v-27a159.244 159.244 0 0 1-21-3 181.075 181.075 0 0 1-24-10l-10-6a71.94 71.94 0 0 0-11-9 9359.98 9359.98 0 0 1-10-11 233.399 233.399 0 0 1-11-17c-1.11-4.032-2.777-7.698-5-11a99.027 99.027 0 0 0-4.5-16 237.236 237.236 0 0 1-2-23zm-1.56 50.479a93.069 93.069 0 0 1-.518.173 93.069 93.069 0 0 0 .517-.173zm-5.538 2.447a26.585 26.585 0 0 0-.168.273 26.585 26.585 0 0 1 .168-.273zm-1.048 1.857a26.585 26.585 0 0 0-.157.313 26.585 26.585 0 0 1 .157-.313zm-9.46 5.352a67.112 67.112 0 0 0-1.17.728 67.112 67.112 0 0 1 1.17-.728zm25.17.926a90.622 90.622 0 0 1-.605.304 90.622 90.622 0 0 1-.719.354 90.622 90.622 0 0 0 .719-.354 90.622 90.622 0 0 0 .605-.304zm-28.318 1.388a6.846 6.846 0 0 0-.16.336 6.846 6.846 0 0 1 .16-.336zm-.637 1.852a6.846 6.846 0 0 0-.062.383 6.846 6.846 0 0 1 .062-.383zm-3.043 1.752a12.93 12.93 0 0 0-.238.033 12.93 12.93 0 0 1 .238-.033zm-.597.093a12.93 12.93 0 0 0-.297.057 12.93 12.93 0 0 0-.295.065 12.93 12.93 0 0 0-.295.07 12.93 12.93 0 0 0-.291.078 12.93 12.93 0 0 0-.291.084 12.93 12.93 0 0 1 .291-.084 12.93 12.93 0 0 1 .291-.078 12.93 12.93 0 0 1 .295-.07 12.93 12.93 0 0 1 .295-.065 12.93 12.93 0 0 1 .297-.057zm47.482 1.004a20.69 20.69 0 0 0-.105.336 20.69 20.69 0 0 1 .105-.336zm-.113.362a20.69 20.69 0 0 0-.104.353 20.69 20.69 0 0 0-.095.346 20.69 20.69 0 0 1 .095-.346 20.69 20.69 0 0 1 .104-.353zm-.326 1.199a20.69 20.69 0 0 0-.06.266 20.69 20.69 0 0 1 .06-.266zm-53.008.39a21.772 21.772 0 0 1-.994.399 21.772 21.772 0 0 0 .994-.398zm-1.734.659a21.772 21.772 0 0 1-.233.076 21.772 21.772 0 0 0 .233-.076zm54.449.41a20.69 20.69 0 0 0-.05.31 20.69 20.69 0 0 0-.052.38 20.69 20.69 0 0 0-.04.335 20.69 20.69 0 0 1 .04-.336 20.69 20.69 0 0 1 .053-.379 20.69 20.69 0 0 1 .049-.31zM207.5 457.5a11.494 11.494 0 0 1-.1.268 11.494 11.494 0 0 1-.105.263 11.494 11.494 0 0 0 .105-.263 11.494 11.494 0 0 0 .1-.268zm-5.375.627c-.408 1.472-.783 2.93-1.125 4.373a126.015 126.015 0 0 1 1.125-4.373zm5.025.24a11.494 11.494 0 0 1-.086.186 11.494 11.494 0 0 0 .086-.186zm-1.257 2.139a11.494 11.494 0 0 1-.16.21 11.494 11.494 0 0 0 .16-.21zm-.372.473a11.494 11.494 0 0 1-.164.193 11.494 11.494 0 0 1-.189.213 11.494 11.494 0 0 0 .19-.213 11.494 11.494 0 0 0 .163-.193zm-.591.66a11.494 11.494 0 0 1-.157.158 11.494 11.494 0 0 1-.181.178 11.494 11.494 0 0 0 .181-.178 11.494 11.494 0 0 0 .157-.158zm-10.496 12.287a45.125 45.125 0 0 0-.082.558 45.125 45.125 0 0 0-.075.559 45.125 45.125 0 0 0-.064.527 45.125 45.125 0 0 1 .064-.527 45.125 45.125 0 0 1 .075-.559 45.125 45.125 0 0 1 .082-.558zm40.152 2.617a301.586 301.586 0 0 0-.893.846 301.586 301.586 0 0 1 .893-.846zm-40.654 3.031a45.125 45.125 0 0 0-.01.438 45.125 45.125 0 0 1 .01-.438zm3.2.283a22.755 22.755 0 0 1-.464.647 22.755 22.755 0 0 0 .465-.647zm-3.187 2.514a45.125 45.125 0 0 0 .016.379 45.125 45.125 0 0 1-.016-.379zm107.489 2.293a4.457 4.457 0 0 1-.073.162 4.457 4.457 0 0 1-.078.16 4.457 4.457 0 0 1-.05.094 4.457 4.457 0 0 0 .05-.094 4.457 4.457 0 0 0 .078-.16 4.457 4.457 0 0 0 .073-.162zm-34.608 4.066a12.403 12.403 0 0 0-.1.223 12.403 12.403 0 0 1 .1-.223zm-57.908 2.707a41.541 41.541 0 0 1-.389.022 41.541 41.541 0 0 0 .389-.022zm51.512 2.274a24.431 24.431 0 0 0-.309.07 24.431 24.431 0 0 0-.369.09 24.431 24.431 0 0 1 .37-.09 24.431 24.431 0 0 1 .308-.07zm-.752.178a24.431 24.431 0 0 0-.364.095 24.431 24.431 0 0 0-.37.104 24.431 24.431 0 0 1 .37-.104 24.431 24.431 0 0 1 .364-.095zm-2.365.728a24.431 24.431 0 0 0-.37.139 24.431 24.431 0 0 1 .37-.139zm-1.602.65a24.431 24.431 0 0 0-.299.135 24.431 24.431 0 0 0-.371.176 24.431 24.431 0 0 1 .371-.176 24.431 24.431 0 0 1 .299-.134zm-1.48.723a24.431 24.431 0 0 0-.301.162 24.431 24.431 0 0 1 .3-.162zm-56.26 3.627a18.087 18.087 0 0 0-.233.127 18.087 18.087 0 0 0-.279.158 18.087 18.087 0 0 1 .28-.158 18.087 18.087 0 0 1 .232-.127zm51.156.485a45.664 45.664 0 0 1-.41.336 45.664 45.664 0 0 1-.444.355 45.664 45.664 0 0 1-.447.35 45.664 45.664 0 0 0 .447-.35 45.664 45.664 0 0 0 .444-.356 45.664 45.664 0 0 0 .41-.335zm-54.102 1.49a18.087 18.087 0 0 0-.185.154 18.087 18.087 0 0 1 .185-.154zm133.207.263a3.647 3.647 0 0 1 .123.08 3.647 3.647 0 0 1 .131.094 3.647 3.647 0 0 0-.13-.093 3.647 3.647 0 0 0-.124-.08zm12.778.934a94.146 94.146 0 0 0-.194.518 94.146 94.146 0 0 1 .194-.518zm-157.557 1.027a6.846 6.846 0 0 1-.062.383 6.846 6.846 0 0 0 .062-.383zm85.78.04a3.647 3.647 0 0 1 .122.08 3.647 3.647 0 0 1 .131.093 3.647 3.647 0 0 0-.13-.093 3.647 3.647 0 0 0-.124-.08zm71.234.421a94.146 94.146 0 0 0-.238.682 94.146 94.146 0 0 1 .238-.682zm-73.975.487a22.136 22.136 0 0 1-.347.191 22.136 22.136 0 0 0 .347-.191zm56.723.66a28.57 28.57 0 0 0-.588.68 28.57 28.57 0 0 1 .588-.68zm-140.3.29a6.846 6.846 0 0 1-.161.337 6.846 6.846 0 0 0 .16-.336zm5.605.561a8.43 8.43 0 0 1-.018.174 8.43 8.43 0 0 0 .018-.174zm-5.752.805a4.457 4.457 0 0 0 .058.104 4.457 4.457 0 0 1-.058-.104zm5.613.115a8.43 8.43 0 0 1-.047.215 8.43 8.43 0 0 0 .047-.215zm49.91.073a20.532 20.532 0 0 0-.15.296 20.532 20.532 0 0 1 .15-.296zm-50.031.433a8.43 8.43 0 0 1-.051.182 8.43 8.43 0 0 1-.07.224 8.43 8.43 0 0 0 .07-.224 8.43 8.43 0 0 0 .05-.182zm-5.028.065a4.457 4.457 0 0 0 .116.134 4.457 4.457 0 0 0 .12.131 4.457 4.457 0 0 1-.12-.13 4.457 4.457 0 0 1-.116-.135zm.368.396a4.457 4.457 0 0 0 .125.113 4.457 4.457 0 0 1-.125-.113zm137.398.09a28.57 28.57 0 0 0-.252.371 28.57 28.57 0 0 1 .252-.371zm17.945.703a94.146 94.146 0 0 0-.22.76 94.146 94.146 0 0 0-.223.785 94.146 94.146 0 0 1 .223-.785 94.146 94.146 0 0 1 .22-.76zm-134.324 1.992a50.509 50.509 0 0 0-.49.258 50.509 50.509 0 0 1 .49-.258zm-.545.287a50.509 50.509 0 0 0-.455.246 50.509 50.509 0 0 1 .455-.246zm83.403.313a146.99 146.99 0 0 0-.706.377 146.99 146.99 0 0 1 .706-.377zm-57.245.308a3.647 3.647 0 0 1 .123.08 3.647 3.647 0 0 1 .131.094 3.647 3.647 0 0 0-.13-.093 3.647 3.647 0 0 0-.124-.08zm19.077 2.948a3.647 3.647 0 0 0 .035.031l-.035-.031zm85.472.033a9.108 9.108 0 0 1-.19.076 9.108 9.108 0 0 0 .19-.076zm-1.416.457a9.108 9.108 0 0 1-.185.041 9.108 9.108 0 0 0 .185-.041zm-.775.146a9.108 9.108 0 0 1-.225.03 9.108 9.108 0 0 1-.205.021 9.108 9.108 0 0 0 .205-.021 9.108 9.108 0 0 0 .225-.03zm-.983.088a9.108 9.108 0 0 1-.207.004 9.108 9.108 0 0 0 .207-.004zm-110.37 3.52a25.807 25.807 0 0 0-.313.058 25.807 25.807 0 0 1 .312-.058zm120.298.334a24.362 24.362 0 0 1 .008.346 24.362 24.362 0 0 0-.008-.346zm-121.984.03a25.807 25.807 0 0 0-.278.07 25.807 25.807 0 0 1 .278-.07zm121.992.35a24.362 24.362 0 0 1 0 .4 24.362 24.362 0 0 0 0-.4zm-126.008 1.012a25.807 25.807 0 0 0-.379.168 25.807 25.807 0 0 1 .38-.168zm125.932 1.123a24.362 24.362 0 0 1-.028.301 24.362 24.362 0 0 0 .028-.3zm-.131 1.24a24.362 24.362 0 0 1-.041.296 24.362 24.362 0 0 0 .04-.295zm-72.104.72a3.647 3.647 0 0 1 .123.08 3.647 3.647 0 0 1 .131.093 3.647 3.647 0 0 0-.13-.093 3.647 3.647 0 0 0-.124-.08zm71.909.523a24.362 24.362 0 0 1-.047.244 24.362 24.362 0 0 0 .047-.244zm-132.875 1.236a781.353 781.353 0 0 1-1.912 1.356 781.353 781.353 0 0 1-1.72 1.21 781.353 781.353 0 0 0 1.72-1.21 781.353 781.353 0 0 0 1.912-1.356zm108.187.201a6.846 6.846 0 0 1-.062.383 6.846 6.846 0 0 0 .062-.383zm-.539 1.899a6.846 6.846 0 0 1-.16.336 6.846 6.846 0 0 0 .16-.336zm-57.824 3.28a106.872 106.872 0 0 1-.795.312 106.872 106.872 0 0 0 .795-.313zm-2.436.935a106.872 106.872 0 0 1-.816.299 106.872 106.872 0 0 0 .816-.3zm-6.351 2.474a26.585 26.585 0 0 1-.157.313 26.585 26.585 0 0 0 .157-.313zm-31.102.9a117.98 117.98 0 0 0-.627.397 117.98 117.98 0 0 1 .627-.396zm108.701.122a26.585 26.585 0 0 0-.168.273 26.585 26.585 0 0 1 .168-.273zm-78.636.875a26.585 26.585 0 0 1-.168.273 26.585 26.585 0 0 0 .168-.273zm-32.368.488a117.98 117.98 0 0 0-.597.399 117.98 117.98 0 0 1 .597-.399zm109.956.494a26.585 26.585 0 0 0-.157.313 26.585 26.585 0 0 1 .157-.313zm-137.34 1.926a781.353 781.353 0 0 1-1.559 1.035 781.353 781.353 0 0 1-1.846 1.219 781.353 781.353 0 0 0 1.846-1.219 781.353 781.353 0 0 0 1.559-1.035zm157.347 1.684a8.43 8.43 0 0 0-.07.224 8.43 8.43 0 0 0-.05.182 8.43 8.43 0 0 1 .05-.182 8.43 8.43 0 0 1 .07-.224zm-.195.697a8.43 8.43 0 0 0-.047.215 8.43 8.43 0 0 1 .047-.215zm-.168.96a8.43 8.43 0 0 0-.018.175 8.43 8.43 0 0 1 .018-.174zm-58.018 1.39a31.625 31.625 0 0 1-.318.074 31.625 31.625 0 0 0 .318-.075zm-1.017.224a31.625 31.625 0 0 1-.254.05 31.625 31.625 0 0 0 .254-.05zm-1.399.252a31.625 31.625 0 0 1-.351.053 31.625 31.625 0 0 0 .351-.053zm-.54.271a4.934 4.934 0 0 1 .015.165 4.934 4.934 0 0 0-.016-.164zm.01.981a4.934 4.934 0 0 1-.014.135 4.934 4.934 0 0 0 .013-.135zm-.167.902a4.934 4.934 0 0 1-.04.139 4.934 4.934 0 0 0 .04-.139zm-.183.534a4.934 4.934 0 0 1-.059.134 4.934 4.934 0 0 0 .059-.134zm-108.618.449a12.93 12.93 0 0 0-.238.033 12.93 12.93 0 0 1 .238-.033zm-.597.093a12.93 12.93 0 0 0-.297.057 12.93 12.93 0 0 0-.295.065 12.93 12.93 0 0 0-.295.07 12.93 12.93 0 0 0-.291.078 12.93 12.93 0 0 0-.291.084 12.93 12.93 0 0 1 .291-.084 12.93 12.93 0 0 1 .291-.078 12.93 12.93 0 0 1 .295-.07 12.93 12.93 0 0 1 .295-.065 12.93 12.93 0 0 1 .297-.057zm108.254.329a26.793 26.793 0 0 1-.278.162 26.793 26.793 0 0 0 .278-.162zM201.5 548a105.721 105.721 0 0 0-7.662 3.209A103.252 103.252 0 0 1 201.5 548zm79.008 1.373a26.793 26.793 0 0 1-.307.133 26.793 26.793 0 0 0 .307-.133zm-.77.328a26.793 26.793 0 0 1-.316.127 26.793 26.793 0 0 0 .316-.127zm-85.959 1.535a101.982 101.982 0 0 0-3.53 1.737 103.252 103.252 0 0 1 3.53-1.737zm109.037.043a144.415 144.415 0 0 0-1.32.856 144.415 144.415 0 0 1 1.32-.856zm-112.851 1.84c-1.17.607-2.326 1.232-3.465 1.881a103.252 103.252 0 0 1 3.465-1.88zm26.937 2.307a26.585 26.585 0 0 0-.168.273 26.585 26.585 0 0 1 .168-.273zm-1.048 1.857a26.585 26.585 0 0 0-.157.313 26.585 26.585 0 0 1 .157-.313zm53.671.158a8.43 8.43 0 0 1 .08.002 8.43 8.43 0 0 1 .245.006 8.43 8.43 0 0 1 .244.014 8.43 8.43 0 0 0-.244-.014 8.43 8.43 0 0 0-.245-.006 8.43 8.43 0 0 0-.203 0 8.43 8.43 0 0 1 .123-.002zm-.437.012a8.43 8.43 0 0 0-.193.012 8.43 8.43 0 0 1 .193-.012zm-.227.016a8.43 8.43 0 0 0-.136.011 8.43 8.43 0 0 1 .136-.011zm24.256.588a144.415 144.415 0 0 0-1.41 1.088 144.415 144.415 0 0 1 1.41-1.088zm-82.869 1.72a56.268 56.268 0 0 0-.586.235 56.268 56.268 0 0 1 .586-.235zm108.06.026a3.647 3.647 0 0 0 .036.031l-.035-.031zm-29.076.052a3.647 3.647 0 0 1 .123.08 3.647 3.647 0 0 1 .131.094 3.647 3.647 0 0 0-.13-.093 3.647 3.647 0 0 0-.124-.08zm-60.779 4.961a6.846 6.846 0 0 1-.062.383 6.846 6.846 0 0 0 .062-.383zm-.539 1.899a6.846 6.846 0 0 1-.16.336 6.846 6.846 0 0 0 .16-.336zm-58.16.365a10.258 10.258 0 0 1-.115.195 10.258 10.258 0 0 0 .115-.195zm136.615 1.799a13.92 13.92 0 0 1-.185.254 13.92 13.92 0 0 0 .185-.254zm-58.094.64a8.43 8.43 0 0 1-.136.012 8.43 8.43 0 0 0 .136-.011zm-.17.016a8.43 8.43 0 0 1-.193.012 8.43 8.43 0 0 0 .193-.012zm-1.199.002a8.43 8.43 0 0 0 .244.014 8.43 8.43 0 0 0 .245.006 8.43 8.43 0 0 0 .203 0 8.43 8.43 0 0 1-.203 0 8.43 8.43 0 0 1-.245-.006 8.43 8.43 0 0 1-.244-.014zm58.05 1.022a13.92 13.92 0 0 1-.45.435 13.92 13.92 0 0 0 .45-.435zm-64.724 3.296a3.647 3.647 0 0 1 .123.08 3.647 3.647 0 0 1 .131.094 3.647 3.647 0 0 0-.13-.093 3.647 3.647 0 0 0-.124-.08zm78.077 3.948a3.647 3.647 0 0 0 .035.031l-.035-.031zm-116.043 4.326a45.8 45.8 0 0 1-.46.137 45.8 45.8 0 0 0 .46-.137zm-1.08.316a45.8 45.8 0 0 1-.49.135 45.8 45.8 0 0 0 .49-.135zm-23.957.008a11.988 11.988 0 0 0-.22.004 11.988 11.988 0 0 1 .22-.004zm-.584.022a11.988 11.988 0 0 0-.215.015 11.988 11.988 0 0 1 .215-.015zm-4.79.146a6.802 6.802 0 0 0 .116.18 6.802 6.802 0 0 1-.116-.18zm27.596.275a45.8 45.8 0 0 1-.472.11 45.8 45.8 0 0 1-.555.123 45.8 45.8 0 0 0 .555-.123 45.8 45.8 0 0 0 .472-.11zm-27.332.122a6.802 6.802 0 0 0 .106.14 6.802 6.802 0 0 0 .11.143 6.802 6.802 0 0 1-.11-.143 6.802 6.802 0 0 1-.106-.14zm24.404.67a4.934 4.934 0 0 1 .016.164 4.934 4.934 0 0 0-.016-.164zm.01.98a4.934 4.934 0 0 1-.013.135 4.934 4.934 0 0 0 .013-.135zm-.166.902a4.934 4.934 0 0 1-.04.139 4.934 4.934 0 0 0 .04-.139zm-.183.534a4.934 4.934 0 0 1-.059.134 4.934 4.934 0 0 0 .059-.134zm-.961.87a26.793 26.793 0 0 1-.278.163 26.793 26.793 0 0 0 .278-.162zm26.302.467a8.43 8.43 0 0 1 .08.002 8.43 8.43 0 0 1 .245.006 8.43 8.43 0 0 1 .244.014 8.43 8.43 0 0 0-.244-.014 8.43 8.43 0 0 0-.245-.006 8.43 8.43 0 0 0-.203 0 8.43 8.43 0 0 1 .123-.002zm-.437.012a8.43 8.43 0 0 0-.193.012 8.43 8.43 0 0 1 .193-.012zm-.227.016a8.43 8.43 0 0 0-.136.011 8.43 8.43 0 0 1 .136-.011zM329.5 588a18.453 18.453 0 0 1-.352.084 18.453 18.453 0 0 0 .352-.084zm-136.992.373a26.793 26.793 0 0 1-.307.133 26.793 26.793 0 0 0 .307-.133zm134.346.092a18.453 18.453 0 0 1-.2.02 18.453 18.453 0 0 1-.36.029 18.453 18.453 0 0 1-.36.021 18.453 18.453 0 0 0 .36-.021 18.453 18.453 0 0 0 .36-.03 18.453 18.453 0 0 0 .2-.02zm-135.116.236a26.793 26.793 0 0 1-.316.127 26.793 26.793 0 0 0 .316-.127zm106.57.102a3.647 3.647 0 0 0 .036.031l-.035-.031zm-82.212.672a147.247 147.247 0 0 0-.739.464 147.247 147.247 0 0 1 .739-.464zm-50.6.964a94.985 94.985 0 0 0 .008.579 94.985 94.985 0 0 1-.008-.579zm75.07 1.114a12.93 12.93 0 0 0-.238.033 12.93 12.93 0 0 1 .238-.033zm-.597.093a12.93 12.93 0 0 0-.297.057 12.93 12.93 0 0 0-.295.065 12.93 12.93 0 0 0-.295.07 12.93 12.93 0 0 0-.291.078 12.93 12.93 0 0 0-.291.084 12.93 12.93 0 0 1 .291-.084 12.93 12.93 0 0 1 .291-.078 12.93 12.93 0 0 1 .295-.07 12.93 12.93 0 0 1 .295-.065 12.93 12.93 0 0 1 .297-.057zm-74.387 2.102a94.985 94.985 0 0 0 .025.547 94.985 94.985 0 0 1-.025-.547zm.127 2.295a94.985 94.985 0 0 0 .115 1.523 94.985 94.985 0 0 1-.115-1.523zm39.508.945a147.247 147.247 0 0 0-.81.62 147.247 147.247 0 0 0-.807.624 147.247 147.247 0 0 1 .806-.625 147.247 147.247 0 0 1 .81-.619zm82.793.004a11.38 11.38 0 0 0-.168.182 11.38 11.38 0 0 1 .168-.182zm-.362.403a11.38 11.38 0 0 0-.175.21 11.38 11.38 0 0 1 .175-.21zm-86.416 1.46a3.647 3.647 0 0 1 .123.08 3.647 3.647 0 0 1 .131.094 3.647 3.647 0 0 0-.13-.093 3.647 3.647 0 0 0-.124-.08zM286.5 599a42.438 42.438 0 0 1-.46.266 42.438 42.438 0 0 0 .46-.266zm-1.09.615a42.438 42.438 0 0 1-.346.186 42.438 42.438 0 0 0 .346-.186zm-114.142.465a4.457 4.457 0 0 0 .058.104 4.457 4.457 0 0 1-.058-.104zm113.252.006a42.438 42.438 0 0 1-.428.219 42.438 42.438 0 0 0 .428-.22zm-112.788.68a4.457 4.457 0 0 0 .116.134 4.457 4.457 0 0 0 .12.131 4.457 4.457 0 0 1-.12-.13 4.457 4.457 0 0 1-.116-.135zm.368.396a4.457 4.457 0 0 0 .125.113 4.457 4.457 0 0 1-.125-.113zm109.316.367a42.438 42.438 0 0 1-.316.131 42.438 42.438 0 0 0 .316-.13zm-115.035 1.08a94.985 94.985 0 0 0 .094.655 94.985 94.985 0 0 1-.094-.655zm111.002.368a42.438 42.438 0 0 1-.414.123 42.438 42.438 0 0 0 .414-.123zm-58.387.75a18.08 18.08 0 0 0-.148.23 18.08 18.08 0 0 1 .148-.23zm82.307.677a26.585 26.585 0 0 1-.157.313 26.585 26.585 0 0 0 .157-.313zm-82.838.182a18.08 18.08 0 0 0-.176.31 18.08 18.08 0 0 1 .176-.31zm-.55 1.023a18.08 18.08 0 0 0-.118.24 18.08 18.08 0 0 1 .117-.24zm82.35.692a26.585 26.585 0 0 1-.167.273 26.585 26.585 0 0 0 .168-.273zm-1.956.502a3.647 3.647 0 0 0 .035.031l-.035-.031zm.355.275a3.647 3.647 0 0 0 .047.031 3.566 3.566 0 0 1-.047-.03zm-109.088.188a161.79 161.79 0 0 1-.773.564 161.79 161.79 0 0 0 .773-.564zm106.785.427a437.701 437.701 0 0 1-1.209.873 437.701 437.701 0 0 1-1.43 1.026 437.701 437.701 0 0 1-1.433 1.02 437.701 437.701 0 0 1-1.437 1.013 437.701 437.701 0 0 1-1.157.809 437.701 437.701 0 0 0 1.157-.809 437.701 437.701 0 0 0 1.437-1.014 437.701 437.701 0 0 0 1.434-1.02 437.701 437.701 0 0 0 1.43-1.025 437.701 437.701 0 0 0 1.208-.873zm-86.816 1.203a25.55 25.55 0 0 0-.225.2 25.55 25.55 0 0 1 .225-.2zm33.271.899a301.568 301.568 0 0 0-1.154.5 301.568 301.568 0 0 1 1.154-.5zm-1.525.662a301.568 301.568 0 0 0-.941.414 301.568 301.568 0 0 1 .941-.414zm-33.559.211a25.55 25.55 0 0 0-.212.232 25.55 25.55 0 0 1 .212-.232zm31.075.89a301.568 301.568 0 0 0-1.02.46 301.568 301.568 0 0 1 1.02-.46zm-57.575.297a3.647 3.647 0 0 1 .123.08 3.647 3.647 0 0 1 .131.094 3.647 3.647 0 0 0-.13-.093 3.647 3.647 0 0 0-.124-.08zm50.582 3.957a34.66 34.66 0 0 1-.351.348 34.66 34.66 0 0 0 .351-.347zm-60.505.99a3.647 3.647 0 0 0 .035.032l-.035-.031zm58.697.698a34.66 34.66 0 0 1-.377.322 34.66 34.66 0 0 0 .377-.322zm-.758.639a34.66 34.66 0 0 1-.285.23 34.66 34.66 0 0 0 .285-.23zm-35.353 2.582a27.752 27.752 0 0 1-.403.154 27.752 27.752 0 0 0 .403-.154zm55.414.082a3.647 3.647 0 0 0 .035.031l-.035-.031zm-24.383.088a27.07 27.07 0 0 0-.268.105 27.07 27.07 0 0 1 .268-.105zm-.805.326a27.07 27.07 0 0 0-.271.117 27.07 27.07 0 0 1 .271-.117zm-31.885.094a27.752 27.752 0 0 1-.289.091 27.752 27.752 0 0 0 .29-.091zm-1.275.375a27.752 27.752 0 0 1-.428.11 27.752 27.752 0 0 0 .428-.11zm29.348.117a3.647 3.647 0 0 0 .035.031l-.035-.031zm-31.073.287a27.752 27.752 0 0 1-.433.084 27.752 27.752 0 0 1-.328.058 27.752 27.752 0 0 0 .328-.058 27.752 27.752 0 0 0 .433-.084zm-1.308.23a27.752 27.752 0 0 1-.274.041 27.752 27.752 0 0 0 .274-.04zm-.877.12a27.752 27.752 0 0 1-.442.048 27.752 27.752 0 0 0 .442-.049zm56.826.94a15.265 15.265 0 0 1-.254.08 15.265 15.265 0 0 0 .254-.08zm-26.05 1.35a12.403 12.403 0 0 0-.1.223 12.403 12.403 0 0 1 .1-.223zm-3.972 2.315a22.136 22.136 0 0 0-.347.191 22.136 22.136 0 0 1 .347-.191zm-3.546.758a3.647 3.647 0 0 0 .035.031l-.035-.031zm-1.707 1.275a95.324 95.324 0 0 0-.475.55 95.324 95.324 0 0 1 .475-.55zm-4.616 5.76a95.324 95.324 0 0 0-.486.662 95.324 95.324 0 0 1 .486-.662zm49.868 1.46a149.334 149.334 0 0 0-.77.36 149.334 149.334 0 0 1 .77-.36zm-.89.417a149.334 149.334 0 0 0-.876.418 149.334 149.334 0 0 1 .877-.418zm-.886.422a149.334 149.334 0 0 0-.824.398 149.334 149.334 0 0 1 .824-.398zm-3.828 1.906a149.334 149.334 0 0 0-.709.367 149.334 149.334 0 0 1 .709-.367zm-4.39 2.357a149.334 149.334 0 0 0-.76.428 149.334 149.334 0 0 1 .76-.428zm-30.557 2.004a26.585 26.585 0 0 1-.157.313 26.585 26.585 0 0 0 .157-.313zm-3.035 1.676a4.457 4.457 0 0 0 .058.104 4.457 4.457 0 0 1-.058-.104zm1.998.22a26.585 26.585 0 0 1-.168.274 26.585 26.585 0 0 0 .168-.273zm24.547.298a149.334 149.334 0 0 0-.764.486 149.334 149.334 0 0 1 .763-.486zm-26.08.168a4.457 4.457 0 0 0 .115.134 4.457 4.457 0 0 0 .12.131 4.457 4.457 0 0 1-.12-.13 4.457 4.457 0 0 1-.116-.135zm.367.396a4.457 4.457 0 0 0 .125.113 4.457 4.457 0 0 1-.125-.113zm23.984.547a149.334 149.334 0 0 0-.752.494 149.334 149.334 0 0 1 .752-.494zm-2.564 1.71a149.334 149.334 0 0 0-.633.435 149.334 149.334 0 0 1 .633-.434zm-40.624 9.538a14.748 14.748 0 0 0-.125.186 14.748 14.748 0 0 1 .125-.186zM215.5 660a17.758 17.758 0 0 1-.326.139 17.758 17.758 0 0 1-.328.132 17.758 17.758 0 0 1-.25.096 17.758 17.758 0 0 0 .25-.096 17.758 17.758 0 0 0 .328-.132 17.758 17.758 0 0 0 .326-.139zm-24.87.205a14.748 14.748 0 0 0-.13.295 14.748 14.748 0 0 1 .13-.295zm22.536.63a17.758 17.758 0 0 1-.238.067 17.758 17.758 0 0 0 .238-.066zm-1.414.337a17.758 17.758 0 0 1-.313.058 17.758 17.758 0 0 1-.255.043 17.758 17.758 0 0 0 .255-.043 17.758 17.758 0 0 0 .313-.058zm-1.734.25a17.758 17.758 0 0 1-.2.017 17.758 17.758 0 0 0 .2-.017zm-1.09.07a17.758 17.758 0 0 1-.297.006 17.758 17.758 0 0 0 .297-.006zM207.5 665c-1.72.675-3.4 1.381-5.043 2.12A109.338 109.338 0 0 1 207.5 665zm-5.209 2.193c-.746.337-1.483.682-2.213 1.032a109.338 109.338 0 0 1 2.213-1.032zm-2.557 1.198c-.752.363-1.498.731-2.234 1.109a109.338 109.338 0 0 1 2.234-1.11z"/><path fill="#b3b3b3" d="M411.004 447.926c-7.067.168-14.236 1.526-21.504 4.074-30.918 17.25-40.918 42.75-30 76.5 6.818 16.818 18.818 28.151 36 34 1.291-.237 2.291.096 3 1a284.673 284.673 0 0 0 23 1 188.08 188.08 0 0 0 13-3.5c25.134-11.749 37.467-31.582 37-59.5-.683-9.018-3.35-17.351-8-25-3.959-6.959-9.292-12.625-16-17-.453-.958-1.119-1.792-2-2.5-11.22-6.33-22.718-9.355-34.496-9.074zm2.838 13.951c7.258.075 14.811 1.95 22.658 5.623 2.579 2.635 5.579 4.801 9 6.5a113.494 113.494 0 0 0 8 9.5c4.212 7.847 6.212 16.181 6 25-2.65 21.64-14.317 35.64-35 42-27.688 3.662-46.021-7.672-55-34-2.747-14.932.753-28.265 10.5-40 10.464-9.873 21.744-14.748 33.842-14.623zm47.17 14.473a31.691 31.691 0 0 0 .125.013c-.042-.004-.084-.01-.125-.013zm1.134.093a31.691 31.691 0 0 0 .307.018 29.137 29.137 0 0 1-.307-.018zm6.602 21.188a6.547 6.547 0 0 0-.143.08 6.547 6.547 0 0 1 .143-.08zm-2.352 2.17a6.547 6.547 0 0 0-.084.135 6.547 6.547 0 0 1 .084-.135zm-103.845 21.99a30.147 30.147 0 0 0-.32.332 30.147 30.147 0 0 1 .32-.332zm36.248 28.871a9.454 9.454 0 0 1-.18.139 9.454 9.454 0 0 0 .18-.139zm-1.52.979a9.454 9.454 0 0 1-.228.115 9.454 9.454 0 0 0 .228-.115zm-.23.115a9.454 9.454 0 0 1-.235.11 9.454 9.454 0 0 1-.2.087 9.454 9.454 0 0 0 .2-.088 9.454 9.454 0 0 0 .235-.11zM621.94 450.027c-7.54-.023-15.02 1.302-22.44 3.973-26.219 14.931-36.886 37.098-32 66.5a38.75 38.75 0 0 1 .107-.512 38.75 38.75 0 0 1 .07-.318 38.75 38.75 0 0 0-.07.318 38.75 38.75 0 0 0-.107.512 79.915 79.915 0 0 1 3.5 12c1.026 2.739 2.526 5.072 4.5 7 1.862 4.042 4.362 7.708 7.5 11a25.55 25.55 0 0 1 6.5 5.5c14.311 10.443 29.978 13.61 47 9.5 34.067-10.752 49.067-34.085 45-70-.788-4.874-2.621-9.207-5.5-13-.667-4.683-2.833-8.35-6.5-11-9.895-13.284-23.229-20.284-40-21a64.273 64.273 0 0 0-7.56-.473zm5.126.438a18.453 18.453 0 0 0-.36.021 18.453 18.453 0 0 0-.36.03 18.453 18.453 0 0 0-.2.02 18.453 18.453 0 0 1 .2-.02 18.453 18.453 0 0 1 .36-.03 18.453 18.453 0 0 1 .36-.021zm-3.214.451a18.453 18.453 0 0 0-.352.084 18.453 18.453 0 0 1 .352-.084zm-4.172 3.604a8.43 8.43 0 0 0 .226.017 8.43 8.43 0 0 0 .244.014 8.43 8.43 0 0 0 .245.006 8.43 8.43 0 0 0 .203 0 8.43 8.43 0 0 1-.203 0 8.43 8.43 0 0 1-.245-.006 8.43 8.43 0 0 1-.244-.014 8.43 8.43 0 0 1-.226-.017zm1.595 0a8.43 8.43 0 0 1-.136.011 8.43 8.43 0 0 0 .136-.011zm-.17.015a8.43 8.43 0 0 1-.193.012 8.43 8.43 0 0 0 .193-.012zm-1.582.152a4.934 4.934 0 0 1 .016.165 4.934 4.934 0 0 0-.016-.164zm.01.981a4.934 4.934 0 0 1-.013.135 4.934 4.934 0 0 1-.018.144 4.934 4.934 0 0 0 .018-.144 4.934 4.934 0 0 0 .013-.135zm-.166.902a4.934 4.934 0 0 1-.04.139 4.934 4.934 0 0 0 .04-.139zm-.183.534a4.934 4.934 0 0 1-.059.134 4.934 4.934 0 0 0 .059-.134zm.248 7.015c15.865-.052 29.555 5.743 41.068 17.381 7.809 9.559 10.809 20.559 9 33-4.067 20.07-16.067 32.736-36 38-10.232 1.864-20.232 1.031-30-2.5-2.588-2.541-5.588-4.541-9-6a118.86 118.86 0 0 1-9-9.5 53.092 53.092 0 0 1-6-15c-4.125-26.645 6.375-44.312 31.5-53 1.03-.336 1.53-1.003 1.5-2a68.875 68.875 0 0 1 6.932-.38zm49.324 7.326a4.934 4.934 0 0 1 .084.002 4.934 4.934 0 0 1 .162.006 4.934 4.934 0 0 0-.162-.006 4.934 4.934 0 0 0-.178 0 4.934 4.934 0 0 1 .094-.002zm-.113.002a4.934 4.934 0 0 0-.147.006 4.934 4.934 0 0 1 .147-.006zm-.59.051a4.934 4.934 0 0 0-.106.018 4.934 4.934 0 0 1 .106-.018zm-.332.063a4.934 4.934 0 0 0-.162.037 4.934 4.934 0 0 1 .162-.037zm-.559.156a4.934 4.934 0 0 0-.15.054 4.934 4.934 0 0 0-.116.045 4.934 4.934 0 0 1 .116-.045 4.934 4.934 0 0 1 .15-.054zm-.498.203a4.934 4.934 0 0 0-.164.08 4.934 4.934 0 0 1 .164-.08zm.584 1.21a6.547 6.547 0 0 0-.143.08 6.547 6.547 0 0 1 .143-.08zm-2.352 2.17a6.547 6.547 0 0 0-.083.136 6.547 6.547 0 0 1 .083-.135zm7.358 17.694a17.767 17.767 0 0 0-.133.283 17.767 17.767 0 0 1 .133-.283zm-.285.623a17.767 17.767 0 0 0-.13.303 17.767 17.767 0 0 1 .13-.303zm-.145.342a17.767 17.767 0 0 0-.123.31 17.767 17.767 0 0 1 .123-.31zm-.879 2.78a17.767 17.767 0 0 0-.043.19 17.767 17.767 0 0 1 .043-.19zm-.133.636a17.767 17.767 0 0 0-.044.236 17.767 17.767 0 0 1 .044-.236zm-.17 1.076a17.767 17.767 0 0 0-.027.217 17.767 17.767 0 0 1 .028-.217zm-.134 1.717a17.767 17.767 0 0 0-.008.332 17.767 17.767 0 0 1 .008-.332zm.365 2.465a40.413 40.413 0 0 1 .07.502 40.413 40.413 0 0 0-.07-.502zm.205 1.627a40.413 40.413 0 0 1 .035.336 40.413 40.413 0 0 0-.035-.336zm-94.717 2.465a10.258 10.258 0 0 0-.115.195 10.258 10.258 0 0 1 .115-.195zm94.914.22a40.413 40.413 0 0 1 .01.309 40.413 40.413 0 0 0-.01-.309zm-.058 4.272a40.413 40.413 0 0 1-.033.451 40.413 40.413 0 0 1-.045.533 40.413 40.413 0 0 0 .045-.533 40.413 40.413 0 0 0 .033-.451zm-102 3.31a38.75 38.75 0 0 0-.16.434 38.75 38.75 0 0 1 .16-.434zm-.363 1.008a38.75 38.75 0 0 0-.127.371 38.75 38.75 0 0 1 .127-.37zm-.168.492a38.75 38.75 0 0 0-.135.422 38.75 38.75 0 0 1 .135-.422zm-.479 1.56a38.75 38.75 0 0 0-.102.368 38.75 38.75 0 0 0-.128.484 38.75 38.75 0 0 1 .128-.484 38.75 38.75 0 0 1 .102-.367zm60.006 36.626a169.005 169.005 0 0 1-1.885.564 169.005 169.005 0 0 0 1.885-.564zm-3.303.973a169.005 169.005 0 0 1-.806.226 169.005 169.005 0 0 0 .806-.226zm-5.056 1.587a68.085 68.085 0 0 0-.325.614 68.085 68.085 0 0 0-.277.535 68.085 68.085 0 0 1 .277-.535 68.085 68.085 0 0 1 .325-.614zm-6.27 7.416a102.867 102.867 0 0 0 .797.133 102.867 102.867 0 0 1-.797-.133zm3.625.553a102.867 102.867 0 0 0 .566.074 102.867 102.867 0 0 1-.566-.074zm1.633.205a102.867 102.867 0 0 0 .627.073 102.867 102.867 0 0 1-.627-.073zm7.49.606a102.867 102.867 0 0 0 .766.031 102.867 102.867 0 0 1-.766-.031zm.867.035a102.867 102.867 0 0 0 .733.023 102.867 102.867 0 0 1-.733-.023zm6.744.02a102.867 102.867 0 0 1-.595.015 102.867 102.867 0 0 0 .595-.016zm-5.843.007a102.867 102.867 0 0 0 .728.018 102.867 102.867 0 0 0 .852.013 102.867 102.867 0 0 1-.852-.013 102.867 102.867 0 0 1-.728-.018zm4.138.03a102.867 102.867 0 0 1-.853.007 102.867 102.867 0 0 1-.537.002 102.867 102.867 0 0 0 .537-.002 102.867 102.867 0 0 0 .853-.007z"/><path fill="#0f0" d="M694.4 410.58c-2 0-3.966.307-5.9.92-4.152-.097-7.152 1.569-9 5-1.904.238-3.238 1.238-4 3-.958.453-1.792 1.119-2.5 2-4.011 9.53-3.011 18.53 3 27 .816 1.323 1.983 1.989 3.5 2 .453.958 1.119 1.792 2 2.5 6.895 3.91 13.895 4.41 21 1.5 13.481-6.432 17.814-16.766 13-31a30.137 30.137 0 0 0-3.5-6c-.671-.752-1.504-1.086-2.5-1l-3-2c-1.411-2.039-3.411-3.039-6-3-2.067-.613-4.1-.92-6.1-.92zm-6.533 2.072a16.339 16.339 0 0 0-.273.075 16.339 16.339 0 0 1 .273-.075zm-.978.287a16.339 16.339 0 0 0-.27.092 16.339 16.339 0 0 1 .27-.092zm13.611.561a19.22 19.22 0 0 1 .338.006 19.22 19.22 0 0 0-.338-.006zm.4.008a19.22 19.22 0 0 1 .336.012 19.22 19.22 0 0 1 .338.017 19.22 19.22 0 0 0-.338-.017 19.22 19.22 0 0 0-.336-.012zm.737.033a19.22 19.22 0 0 1 .336.025 19.22 19.22 0 0 1 .29.028 19.22 19.22 0 0 0-.29-.028 19.22 19.22 0 0 0-.336-.025zm1.48.154a19.22 19.22 0 0 1 .278.043 19.22 19.22 0 0 0-.278-.043zm1.764.34a19.22 19.22 0 0 1 .295.072 19.22 19.22 0 0 0-.295-.072zm-6.56 12.735a96.43 96.43 0 0 1-.579.285 96.43 96.43 0 0 0 .578-.285zm-.735.36a96.43 96.43 0 0 1-.658.317 96.43 96.43 0 0 0 .658-.316zm-1.457.692a96.43 96.43 0 0 1-.705.326 96.43 96.43 0 0 1-.746.336 96.43 96.43 0 0 0 .746-.336 96.43 96.43 0 0 0 .705-.326zm-1.465.668a96.43 96.43 0 0 1-.75.33 96.43 96.43 0 0 0 .75-.33z"/><path fill="gray" d="M622 468.5c-2.5 0-5 .166-7.5.5-1.237.232-2.237.732-3 1.5-2.657.435-4.991 1.435-7 3a10.134 10.134 0 0 0-4 1.5c-7.928 5.745-13.262 13.245-16 22.5-.722.418-1.222 1.084-1.5 2a59.497 59.497 0 0 0 .5 18 51.197 51.197 0 0 0 5 13 95.356 95.356 0 0 0 8 8.5 123.215 123.215 0 0 0 22.5 5.5c19.889-1.929 33.889-11.929 42-30 2.854-8.051 2.687-15.718-.5-23-2.564-5.897-6.564-10.564-12-14a26.707 26.707 0 0 0-7-5 82.021 82.021 0 0 1-12-3.5c-2.5-.334-5-.5-7.5-.5zm-18.443 5.848a119.866 119.866 0 0 0-.68.62 119.866 119.866 0 0 1 .68-.62zm-1.512 1.394a119.866 119.866 0 0 0-.514.485 119.866 119.866 0 0 0-.664.636 119.866 119.866 0 0 1 .664-.636 119.866 119.866 0 0 1 .514-.485zm-7.553 7.76a119.866 119.866 0 0 0-.61.69 119.866 119.866 0 0 0-.566.652 119.866 119.866 0 0 1 .567-.653 119.866 119.866 0 0 1 .61-.689zm-5.64 46.959a4.934 4.934 0 0 0-.164.016 4.934 4.934 0 0 1 .164-.016zm.816.006a4.934 4.934 0 0 1 .135.013 4.934 4.934 0 0 1 .144.018 4.934 4.934 0 0 0-.144-.018 4.934 4.934 0 0 0-.135-.013zm.902.166a4.934 4.934 0 0 1 .139.04 4.934 4.934 0 0 0-.139-.04zm.534.183a4.934 4.934 0 0 1 .134.059 4.934 4.934 0 0 0-.134-.059z"/><path fill="#ccc" d="M411.93 466.04c-10.6.236-19.742 4.39-27.43 12.46-3.315 2.625-5.649 5.958-7 10-3.113 4.022-4.447 8.689-4 14-.656 1.122-.989 2.455-1 4a432.955 432.955 0 0 0 1.5 11 67081.02 67081.02 0 0 1 6 12c4.593 5.387 10.426 8.887 17.5 10.5 27.653 4.434 46.153-6.4 55.5-32.5 2.096-11.545-1.071-21.212-9.5-29-6.739-6.472-14.739-10.472-24-12a47.176 47.176 0 0 0-7.57-.46zm21.324 10.714a159.193 159.193 0 0 1 2.22 2.266 159.193 159.193 0 0 0-2.22-2.266zm2.226 2.271a159.193 159.193 0 0 1 1.17 1.233 159.193 159.193 0 0 0-1.17-1.233zm-62.017 24.608a27.32 27.32 0 0 0-.004.308 27.32 27.32 0 0 1 .004-.308zm.016 1.39a27.32 27.32 0 0 0 .013.3 27.32 27.32 0 0 0 .022.388 27.32 27.32 0 0 1-.022-.389 27.32 27.32 0 0 1-.013-.299zm.042.809a27.32 27.32 0 0 0 .028.356 27.32 27.32 0 0 1-.028-.356zm.127 1.367a27.32 27.32 0 0 0 .026.217 27.32 27.32 0 0 1-.026-.217zm.114.846a27.32 27.32 0 0 0 .039.262 27.32 27.32 0 0 1-.04-.262zm.21 1.22a27.32 27.32 0 0 0 .085.41 27.32 27.32 0 0 1-.084-.41zm1.878 5.905a27.32 27.32 0 0 0 .15.33 27.32 27.32 0 0 1-.15-.33z"/></svg>