<svg width="1024" height="1024" fill-rule="evenodd" clip-rule="evenodd" image-rendering="optimizeQuality" shape-rendering="geometricPrecision" text-rendering="geometricPrecision" xml:space="preserve" xmlns:xlink="http://www.w3.org/1999/xlink" xmlns="http://www.w3.org/2000/svg"><defs><linearGradient xlink:href="#f" id="q" x1="677.176" y1="541.057" x2="906.854" y2="541.057" gradientUnits="userSpaceOnUse" gradientTransform="rotate(40 780.145 552.325)"/><linearGradient id="o"><stop style="stop-color:#111;stop-opacity:1" offset="0"/><stop style="stop-color:#9d9d9d;stop-opacity:1" offset="1"/></linearGradient><linearGradient id="b"><stop style="stop-color:#1a1a1a;stop-opacity:1" offset="0"/><stop style="stop-color:#666;stop-opacity:1" offset=".628"/></linearGradient><linearGradient id="a"><stop style="stop-color:#232323;stop-opacity:1" offset="0"/><stop style="stop-color:#8d8d8d;stop-opacity:1" offset=".886"/></linearGradient><linearGradient id="d"><stop style="stop-color:#292929;stop-opacity:1" offset="0"/><stop style="stop-color:#acacac;stop-opacity:1" offset="1"/></linearGradient><linearGradient id="j"><stop style="stop-color:#818181;stop-opacity:1" offset=".044"/><stop style="stop-color:#323232;stop-opacity:1" offset="1"/></linearGradient><linearGradient id="i"><stop style="stop-color:#1a80c7;stop-opacity:1" offset=".144"/><stop style="stop-color:#09334f;stop-opacity:1" offset="1"/></linearGradient><linearGradient id="e"><stop style="stop-color:#000;stop-opacity:1" offset="0"/><stop style="stop-color:#787878;stop-opacity:1" offset="1"/></linearGradient><linearGradient id="h"><stop style="stop-color:#c97f1e;stop-opacity:1" offset=".148"/><stop style="stop-color:#4d300c;stop-opacity:1" offset="1"/></linearGradient><linearGradient id="g"><stop style="stop-color:#5c5c5c;stop-opacity:1" offset=".159"/><stop style="stop-color:#2e2e2e;stop-opacity:1" offset="1"/></linearGradient><linearGradient id="k"><stop style="stop-color:#0f0;stop-opacity:1" offset=".094"/><stop style="stop-color:#004d00;stop-opacity:1" offset="1"/></linearGradient><linearGradient id="l"><stop style="stop-color:#ff1a1a;stop-opacity:1" offset=".023"/><stop style="stop-color:#380000;stop-opacity:1" offset="1"/></linearGradient><linearGradient id="c"><stop style="stop-color:#232323;stop-opacity:1" offset="0"/><stop style="stop-color:#8d8d8d;stop-opacity:1" offset=".86"/></linearGradient><linearGradient xlink:href="#b" id="r" x1="113.822" y1="538.862" x2="408.406" y2="538.862" gradientUnits="userSpaceOnUse" gradientTransform="rotate(-90 261.114 538.862)"/><linearGradient id="f"><stop style="stop-color:#666;stop-opacity:1" offset="0"/><stop style="stop-color:#1a1a1a;stop-opacity:1" offset=".628"/></linearGradient><linearGradient id="n"><stop style="stop-color:#a1a1a1;stop-opacity:1" offset="0"/><stop style="stop-color:#404040;stop-opacity:1" offset="1"/></linearGradient><linearGradient xlink:href="#n" id="C" x1="652.36" y1="151.64" x2="833.903" y2="151.64" gradientUnits="userSpaceOnUse" gradientTransform="rotate(45 431.208 205.53)"/><linearGradient id="m"><stop style="stop-color:#a3a3a3;stop-opacity:1" offset="0"/><stop style="stop-color:#3e3e3e;stop-opacity:1" offset=".882"/></linearGradient><linearGradient xlink:href="#m" id="B" x1="256.273" y1="388.819" x2="435.118" y2="388.819" gradientUnits="userSpaceOnUse" gradientTransform="rotate(45 347.045 388.82)"/><linearGradient xlink:href="#o" id="D" x1="421.289" y1="145.752" x2="638.857" y2="145.752" gradientUnits="userSpaceOnUse" gradientTransform="rotate(-90 656.518 284.198)"/><radialGradient xlink:href="#g" id="u" gradientUnits="userSpaceOnUse" gradientTransform="matrix(.92958 0 0 .92958 72.85 69.574)" cx="294.448" cy="382.651" fx="294.448" fy="382.651" r="25.818"/><radialGradient xlink:href="#h" id="z" gradientUnits="userSpaceOnUse" cx="694.411" cy="340.387" fx="694.411" fy="340.387" r="25.818" gradientTransform="matrix(.92958 0 0 .92958 48.898 23.969)"/><radialGradient xlink:href="#l" id="y" gradientUnits="userSpaceOnUse" cx="739.076" cy="385.93" fx="739.076" fy="385.93" r="25.818" gradientTransform="matrix(.92958 0 0 .92958 52.043 27.176)"/><radialGradient xlink:href="#k" id="x" gradientUnits="userSpaceOnUse" cx="694.411" cy="430.559" fx="694.411" fy="430.559" r="25.818" gradientTransform="matrix(.92958 0 0 .92958 48.898 30.318)"/><radialGradient xlink:href="#i" id="A" gradientUnits="userSpaceOnUse" cx="646.296" cy="385.93" fx="646.296" fy="385.93" r="25.818" gradientTransform="matrix(.92958 0 0 .92958 45.51 27.176)"/><radialGradient xlink:href="#j" id="p" gradientUnits="userSpaceOnUse" gradientTransform="translate(231.673 29.76) scale(.94318)" cx="415.109" cy="507.524" fx="415.109" fy="507.524" r="44"/><radialGradient xlink:href="#g" id="v" gradientUnits="userSpaceOnUse" gradientTransform="matrix(.92958 0 0 .92958 121.515 28.945)" cx="294.448" cy="382.651" fx="294.448" fy="382.651" r="25.818"/><radialGradient xlink:href="#g" id="w" gradientUnits="userSpaceOnUse" gradientTransform="matrix(.92958 0 0 .92958 72.85 -14.598)" cx="294.448" cy="382.651" fx="294.448" fy="382.651" r="25.818"/><radialGradient xlink:href="#g" id="s" cx="294.448" cy="382.651" fx="294.448" fy="382.651" r="25.818" gradientUnits="userSpaceOnUse" gradientTransform="matrix(.92958 0 0 .92958 20.734 26.945)"/><radialGradient xlink:href="#j" id="t" gradientUnits="userSpaceOnUse" cx="415.109" cy="507.524" fx="415.109" fy="507.524" r="44" gradientTransform="translate(23.586 28.837) scale(.94318)"/></defs><path style="fill:#000;stroke:none" d="M359.176 283.687c-3.988-.457-8.115-.603-12.129-.603h-.072c-42.177.029-80.303 25.12-97.012 63.846-65.447 86.157-97.462 168.649-101.545 233.207-2.06 32.567 2.977 60.728 15.254 82.355 12.277 21.627 32.288 36.352 57.406 40.62 48.204 8.188 83.85-12.572 107.43-44.032 20.258-27.028 32.933-61.618 42.08-94.482a72.49 72.49 0 0 0 110.902-28.086l48.67-.715 26.047.35c11.21 27.109 37.653 44.79 66.988 44.79a72.49 72.49 0 0 0 44.905-15.585c9.149 32.893 21.829 67.524 42.107 94.58 23.58 31.46 59.226 52.22 107.43 44.03 25.118-4.266 45.13-18.991 57.406-40.618 12.277-21.627 17.314-49.789 15.254-82.356-4.12-65.133-41.335-155.076-107.967-242.066l.016.144c-18.376-34.458-54.248-55.982-93.3-55.982h-.071c-12.162.006-15.043 1.239-17.08 1.135l-23.32.342c-96.702.184-192.71.036-289.392-.86"/><path style="fill:#666;stroke:none" d="M623.194 450.853c-31.808 0-57.594 25.786-57.594 57.594 0 31.81 25.784 57.596 57.594 57.596 31.81-.001 57.596-25.787 57.596-57.596 0-31.808-25.788-57.594-57.596-57.594zm.002 12.91c24.68 0 44.685 20.006 44.686 44.684 0 24.679-20.006 44.686-44.686 44.686-24.679 0-44.685-20.006-44.685-44.686 0-24.678 20.007-44.684 44.685-44.684zM415.108 449.797c-31.808-.001-57.594 25.783-57.594 57.593 0 31.81 25.784 57.596 57.594 57.596 31.81 0 57.596-25.788 57.596-57.596 0-31.808-25.788-57.593-57.596-57.593zm.002 12.91c24.68 0 44.685 20.004 44.686 44.683 0 24.68-20.006 44.686-44.686 44.686-24.679 0-44.685-20.007-44.685-44.686s20.007-44.683 44.685-44.683z"/><path style="fill:#d45500;stroke:none" d="M344.016 493.234a72.49 72.49 0 0 0-.123.635 72.49 72.49 0 0 1 .123-.635zm349.519-2.306a72.49 72.49 0 0 1 .108.437 72.49 72.49 0 0 0-.108-.437zm-348.888-.558a72.49 72.49 0 0 0-.323 1.394 72.49 72.49 0 0 1 .323-1.395zm.316-1.259a72.49 72.49 0 0 0-.145.563 72.49 72.49 0 0 1 .145-.563z"/><path style="stroke:none" d="M344.016 493.234zM693.536 490.928zM344.648 490.369zM344.964 489.111zM692.968 488.789zM347.378 481.564z"/><circle style="fill:url(#p);fill-opacity:1;fill-rule:evenodd;stroke:none;stroke-width:.584198;stroke-linecap:round;stroke-linejoin:round;paint-order:stroke fill markers;stop-color:#000" cx="623.196" cy="508.448" r="41.5"/><path style="fill:#999;stroke:none" d="M415.11 467.672c21.936 0 39.718 17.783 39.72 39.719 0 21.936-17.783 39.72-39.72 39.72-21.937 0-39.72-17.783-39.72-39.72 0-21.937 17.784-39.72 39.72-39.72z"/><path style="stroke:none" d="M438.346 438.729zM604.756 438.344zM436.303 438.07zM432.893 437.117a71.614 71.614 0 0 1 1.345.356 70.841 70.841 0 0 1-1.345-.356zM610.973 436.996zM430.768 436.613zM428.75 436.197zM427.459 435.963zM425.266 435.617z"/><path style="fill:url(#q);fill-opacity:1;stroke:none" d="M794.78 388.57c49.375 72.98 73.347 141.274 76.657 193.612 1.893 29.915-2.966 54.46-12.828 71.832-9.861 17.372-24.233 27.937-44.136 31.318-41.84 7.107-68.387-9.042-89.143-36.734-19.97-26.643-32.904-64.385-42.043-99.608a72.49 72.49 0 0 0 12.397-40.543 72.49 72.49 0 0 0-1.37-14.023 105.735 105.735 0 0 0 100.467-105.606 105.735 105.735 0 0 0 0-.248z"/><path style="fill:url(#r);fill-opacity:1;stroke:none" d="M241.346 391.57a105.735 105.735 0 0 0 102.427 102.934 72.49 72.49 0 0 0-1.154 12.887 72.49 72.49 0 0 0 12.734 41.037c-9.135 35.14-22.053 72.748-41.968 99.318-20.756 27.693-47.303 43.842-89.143 36.734-19.903-3.38-34.275-13.946-44.137-31.318-9.861-17.372-14.72-41.917-12.828-71.832 3.252-51.415 26.441-118.23 74.069-189.76z"/><circle style="fill:url(#s);fill-opacity:1;fill-rule:evenodd;stroke:none;stroke-width:.337853;stroke-linecap:round;stroke-linejoin:round;paint-order:stroke fill markers;stop-color:#000" cx="294.448" cy="382.651" r="24"/><circle style="fill:url(#t);fill-opacity:1;fill-rule:evenodd;stroke:none;stroke-width:.584198;stroke-linecap:round;stroke-linejoin:round;paint-order:stroke fill markers;stop-color:#000" cx="415.109" cy="507.524" r="41.5"/><path style="fill:#d45500;stroke:none" d="M344.016 493.234a72.49 72.49 0 0 0-.123.635 72.49 72.49 0 0 1 .123-.635zm349.519-2.306a72.49 72.49 0 0 1 .108.437 72.49 72.49 0 0 0-.108-.437zm-348.888-.558a72.49 72.49 0 0 0-.323 1.394 72.49 72.49 0 0 1 .323-1.395zm.316-1.259a72.49 72.49 0 0 0-.145.563 72.49 72.49 0 0 1 .145-.563z"/><circle style="fill:url(#u);fill-opacity:1;fill-rule:evenodd;stroke:none;stroke-width:.337853;stroke-linecap:round;stroke-linejoin:round;paint-order:stroke fill markers;stop-color:#000" cx="346.564" cy="425.28" r="24"/><circle style="fill:url(#v);fill-opacity:1;fill-rule:evenodd;stroke:none;stroke-width:.337853;stroke-linecap:round;stroke-linejoin:round;paint-order:stroke fill markers;stop-color:#000" cx="395.229" cy="384.651" r="24"/><circle style="fill:url(#w);fill-opacity:1;fill-rule:evenodd;stroke:none;stroke-width:.337853;stroke-linecap:round;stroke-linejoin:round;paint-order:stroke fill markers;stop-color:#000" cx="346.564" cy="341.108" r="24"/><circle style="fill:url(#x);fill-opacity:1;fill-rule:evenodd;stroke:none;stroke-width:.337852;stroke-linecap:round;stroke-linejoin:round;paint-order:stroke fill markers;stop-color:#000" cx="694.411" cy="430.559" r="24"/><circle style="fill:url(#y);fill-opacity:1;fill-rule:evenodd;stroke:none;stroke-width:.337852;stroke-linecap:round;stroke-linejoin:round;paint-order:stroke fill markers;stop-color:#000" cx="739.076" cy="385.93" r="24"/><circle style="fill:url(#z);fill-opacity:1;fill-rule:evenodd;stroke:none;stroke-width:.337852;stroke-linecap:round;stroke-linejoin:round;paint-order:stroke fill markers;stop-color:#000" cx="694.411" cy="340.387" r="24"/><circle style="fill:url(#A);fill-opacity:1;fill-rule:evenodd;stroke:none;stroke-width:.337852;stroke-linecap:round;stroke-linejoin:round;paint-order:stroke fill markers;stop-color:#000" cx="646.296" cy="385.93" r="24"/><path style="fill:url(#B);stroke:none" d="M347.048 298.047c-50.132 0-90.775 40.638-90.776 90.77 0 50.134 40.642 90.774 90.774 90.774.374 0 .748-.003 1.12-.008 11.234-27.042 37.63-44.668 66.913-44.681h.03a72.489 72.489 0 0 1 9.75.658 90.773 90.773 0 0 0 12.958-46.742c0-50.131-40.638-90.772-90.77-90.772zm-.485 16.117c14.808-.001 26.813 12.003 26.813 26.812 0 14.807-12.007 26.81-26.815 26.81-14.806 0-26.808-12.004-26.809-26.81 0-14.808 12.003-26.812 26.811-26.812zm-52.117 41.543c14.81-.001 26.815 12.003 26.814 26.812 0 14.807-12.006 26.811-26.814 26.81-14.807 0-26.809-12.004-26.809-26.81 0-14.807 12.002-26.812 26.808-26.812zm100.783 2c14.808-.001 26.813 12.003 26.813 26.812 0 14.807-12.007 26.81-26.815 26.81-14.806 0-26.808-12.004-26.809-26.81 0-14.808 12.003-26.812 26.811-26.812zm-48.666 40.629c14.808-.001 26.813 12.003 26.813 26.812 0 14.807-12.007 26.81-26.815 26.81-14.806 0-26.808-12.003-26.809-26.81 0-14.807 12.003-26.812 26.811-26.812z"/><path style="fill:url(#C);stroke:none" d="M689.048 298.047c-50.133 0-90.774 40.64-90.774 90.771a90.773 90.773 0 0 0 13.735 48.008 72.523 72.523 0 0 1 11.156-.867h.03c28.974.001 55.166 17.255 66.603 43.877l-.108-.248c49.88-.355 90.127-40.89 90.127-90.77 0-50.13-40.638-90.771-90.77-90.771zm5.363 15.396c14.809 0 26.812 12.004 26.812 26.813 0 14.808-12.004 26.811-26.812 26.81-14.807 0-26.81-12.003-26.81-26.81-.001-14.808 12.003-26.813 26.81-26.812zm-48.115 45.543c14.808 0 26.811 12.004 26.81 26.812 0 14.807-12.002 26.812-26.81 26.81-14.807 0-26.81-12.003-26.81-26.81-.002-14.808 12.002-26.812 26.81-26.812zm92.78 0c14.81 0 26.813 12.004 26.813 26.813 0 14.807-12.004 26.811-26.812 26.81-14.807 0-26.81-12.003-26.81-26.81-.001-14.808 12.003-26.813 26.81-26.812zm-44.665 44.629c14.809 0 26.812 12.004 26.812 26.813 0 14.806-12.004 26.81-26.812 26.81-14.807 0-26.81-12.003-26.81-26.81-.001-14.808 12.003-26.813 26.81-26.812z"/><path style="fill:url(#D);stroke:none" d="M628.897 301.859a105.735 105.735 0 0 0-31.895 138.998c-27.905 10.814-46.296 37.664-46.297 67.59 0 3.557.263 7.109.785 10.627l-21.342-.287-43.556.64a72.49 72.49 0 0 0 1.006-12.036c-.001-30.553-19.16-57.826-47.9-68.19a73.482 73.482 0 0 0 .257.092 105.735 105.735 0 0 0-32.709-137.4l114.625 1.54z"/></svg>