<svg width="1024" height="1024" fill-rule="evenodd" clip-rule="evenodd" image-rendering="optimizeQuality" shape-rendering="geometricPrecision" text-rendering="geometricPrecision" xml:space="preserve" xmlns:xlink="http://www.w3.org/1999/xlink" xmlns="http://www.w3.org/2000/svg"><defs><linearGradient xlink:href="#c" id="v" x1="242.78" y1="388.926" x2="451.312" y2="388.926" gradientUnits="userSpaceOnUse" gradientTransform="translate(-867.457 -418.54)"/><linearGradient id="a"><stop style="stop-color:#1a1a1a;stop-opacity:1" offset="0"/><stop style="stop-color:#666;stop-opacity:1" offset=".628"/></linearGradient><linearGradient id="c"><stop style="stop-color:#232323;stop-opacity:1" offset="0"/><stop style="stop-color:#8d8d8d;stop-opacity:1" offset=".886"/></linearGradient><linearGradient id="k"><stop style="stop-color:#292929;stop-opacity:1" offset="0"/><stop style="stop-color:#acacac;stop-opacity:1" offset="1"/></linearGradient><linearGradient id="f"><stop style="stop-color:#818181;stop-opacity:1" offset=".044"/><stop style="stop-color:#323232;stop-opacity:1" offset="1"/></linearGradient><linearGradient id="j"><stop style="stop-color:#1a80c7;stop-opacity:1" offset=".144"/><stop style="stop-color:#09334f;stop-opacity:1" offset="1"/></linearGradient><linearGradient id="i"><stop style="stop-color:#000;stop-opacity:1" offset="0"/><stop style="stop-color:#787878;stop-opacity:1" offset="1"/></linearGradient><linearGradient id="h"><stop style="stop-color:#c97f1e;stop-opacity:1" offset=".148"/><stop style="stop-color:#4d300c;stop-opacity:1" offset="1"/></linearGradient><linearGradient id="g"><stop style="stop-color:#5c5c5c;stop-opacity:1" offset=".159"/><stop style="stop-color:#2e2e2e;stop-opacity:1" offset="1"/></linearGradient><linearGradient id="e"><stop style="stop-color:#0f0;stop-opacity:1" offset=".094"/><stop style="stop-color:#004d00;stop-opacity:1" offset="1"/></linearGradient><linearGradient id="d"><stop style="stop-color:#ff1a1a;stop-opacity:1" offset=".023"/><stop style="stop-color:#380000;stop-opacity:1" offset="1"/></linearGradient><linearGradient id="b"><stop style="stop-color:#232323;stop-opacity:1" offset="0"/><stop style="stop-color:#8d8d8d;stop-opacity:1" offset=".86"/></linearGradient><linearGradient xlink:href="#a" id="o" x1="113.822" y1="538.862" x2="408.406" y2="538.862" gradientUnits="userSpaceOnUse" gradientTransform="rotate(-90 261.114 538.862)"/><linearGradient xlink:href="#b" id="p" x1="584.78" y1="388.886" x2="793.312" y2="388.886" gradientUnits="userSpaceOnUse" gradientTransform="translate(-1451.26 -176.642)"/><linearGradient id="l"><stop style="stop-color:#666;stop-opacity:1" offset="0"/><stop style="stop-color:#1a1a1a;stop-opacity:1" offset=".628"/></linearGradient><linearGradient xlink:href="#k" id="w" x1="345.109" y1="507.524" x2="485.109" y2="507.524" gradientUnits="userSpaceOnUse" gradientTransform="translate(237.291 -442.176)"/><linearGradient xlink:href="#k" id="q" x1="553.195" y1="508.58" x2="693.195" y2="508.58" gradientUnits="userSpaceOnUse" gradientTransform="translate(177.09 -589.625)"/><linearGradient xlink:href="#i" id="m" x1="-527.706" y1="520.557" x2="-288.988" y2="520.557" gradientUnits="userSpaceOnUse"/><linearGradient xlink:href="#l" id="n" x1="677.176" y1="541.057" x2="906.854" y2="541.057" gradientUnits="userSpaceOnUse" gradientTransform="rotate(40 780.145 552.325)"/><radialGradient xlink:href="#g" id="A" cx="346.564" cy="341.108" fx="346.564" fy="341.108" r="25.818" gradientUnits="userSpaceOnUse"/><radialGradient xlink:href="#g" id="y" cx="346.564" cy="425.28" fx="346.564" fy="425.28" r="25.818" gradientUnits="userSpaceOnUse"/><radialGradient xlink:href="#g" id="x" cx="395.229" cy="384.651" fx="395.229" fy="384.651" r="25.818" gradientUnits="userSpaceOnUse"/><radialGradient xlink:href="#h" id="t" cx="694.411" cy="340.387" fx="694.411" fy="340.387" r="25.818" gradientUnits="userSpaceOnUse"/><radialGradient xlink:href="#g" id="z" cx="294.448" cy="382.651" fx="294.448" fy="382.651" r="25.818" gradientUnits="userSpaceOnUse"/><radialGradient xlink:href="#j" id="u" cx="646.296" cy="385.93" fx="646.296" fy="385.93" r="25.818" gradientUnits="userSpaceOnUse"/><radialGradient xlink:href="#f" id="B" cx="415.109" cy="507.524" fx="415.109" fy="507.524" r="44" gradientUnits="userSpaceOnUse"/><radialGradient xlink:href="#e" id="r" cx="694.411" cy="430.559" fx="694.411" fy="430.559" r="25.818" gradientUnits="userSpaceOnUse"/><radialGradient xlink:href="#d" id="s" cx="739.076" cy="385.93" fx="739.076" fy="385.93" r="25.818" gradientUnits="userSpaceOnUse"/><radialGradient xlink:href="#f" id="C" cx="623.195" cy="508.58" fx="623.195" fy="508.58" r="44" gradientUnits="userSpaceOnUse"/></defs><path style="fill:url(#m);fill-opacity:1;paint-order:stroke fill markers" transform="rotate(-90)" d="M-527.706 406.299h238.718v228.515h-238.718z"/><path style="fill:url(#n);fill-opacity:1" d="M794.78 388.57c49.375 72.98 73.347 141.274 76.657 193.612 1.893 29.915-2.966 54.46-12.828 71.832-9.861 17.372-24.233 27.937-44.136 31.318-41.84 7.107-68.387-9.042-89.143-36.734-19.97-26.643-32.904-64.385-42.043-99.608a72.49 72.49 0 0 0 12.397-40.543 72.49 72.49 0 0 0-1.37-14.023 105.735 105.735 0 0 0 100.467-105.606 105.735 105.735 0 0 0 0-.248z"/><path style="fill:url(#o);fill-opacity:1" d="M241.346 391.57a105.735 105.735 0 0 0 102.427 102.934 72.49 72.49 0 0 0-1.154 12.887 72.49 72.49 0 0 0 12.734 41.037c-9.135 35.14-22.053 72.748-41.968 99.318-20.756 27.693-47.303 43.842-89.143 36.734-19.903-3.38-34.275-13.946-44.137-31.318-9.861-17.372-14.72-41.917-12.828-71.832 3.252-51.415 26.441-118.23 74.069-189.76z"/><circle style="fill:url(#p);fill-opacity:1;fill-rule:evenodd;stroke:none;stroke-width:1.46776;stroke-linecap:round;stroke-linejoin:round;paint-order:stroke fill markers;stop-color:#000" cx="-762.213" cy="212.245" r="104.266" transform="rotate(-135)"/><circle style="fill:url(#q);fill-rule:evenodd;stroke:none;stroke-width:.985393;stroke-linecap:round;stroke-linejoin:round;paint-order:stroke fill markers;stop-color:#000" cx="800.286" cy="-81.045" r="70" transform="rotate(45)"/><circle style="fill:url(#r);fill-rule:evenodd;stroke:none;stroke-width:.363445;stroke-linecap:round;stroke-linejoin:round;paint-order:stroke fill markers;stop-color:#000;fill-opacity:1" cx="694.411" cy="430.559" r="25.818"/><circle style="fill:url(#s);fill-rule:evenodd;stroke:none;stroke-width:.363445;stroke-linecap:round;stroke-linejoin:round;paint-order:stroke fill markers;stop-color:#000;fill-opacity:1" cx="739.076" cy="385.93" r="25.818"/><circle style="fill:url(#t);fill-rule:evenodd;stroke:none;stroke-width:.363445;stroke-linecap:round;stroke-linejoin:round;paint-order:stroke fill markers;stop-color:#000;fill-opacity:1" cx="694.411" cy="340.387" r="25.818"/><circle style="fill:url(#u);fill-rule:evenodd;stroke:none;stroke-width:.363445;stroke-linecap:round;stroke-linejoin:round;paint-order:stroke fill markers;stop-color:#000;fill-opacity:1" cx="646.296" cy="385.93" r="25.818"/><circle style="fill:url(#v);fill-rule:evenodd;stroke:none;stroke-width:1.46776;stroke-linecap:round;stroke-linejoin:round;paint-order:stroke fill markers;stop-color:#000" cx="-520.411" cy="-29.614" r="104.266" transform="rotate(-135)"/><circle style="fill:url(#w);fill-rule:evenodd;stroke:none;stroke-width:.985393;stroke-linecap:round;stroke-linejoin:round;paint-order:stroke fill markers;stop-color:#000" cx="652.4" cy="65.348" r="70" transform="rotate(45)"/><circle style="fill:url(#x);fill-rule:evenodd;stroke:none;stroke-width:.363445;stroke-linecap:round;stroke-linejoin:round;paint-order:stroke fill markers;stop-color:#000;fill-opacity:1" cx="395.229" cy="384.651" r="25.818"/><circle style="fill:url(#y);fill-rule:evenodd;stroke:none;stroke-width:.363445;stroke-linecap:round;stroke-linejoin:round;paint-order:stroke fill markers;stop-color:#000;fill-opacity:1" cx="346.564" cy="425.28" r="25.818"/><circle style="fill:url(#z);fill-rule:evenodd;stroke:none;stroke-width:.363445;stroke-linecap:round;stroke-linejoin:round;paint-order:stroke fill markers;stop-color:#000;fill-opacity:1" cx="294.448" cy="382.651" r="25.818"/><circle style="fill:url(#A);fill-rule:evenodd;stroke:none;stroke-width:.363445;stroke-linecap:round;stroke-linejoin:round;paint-order:stroke fill markers;stop-color:#000;fill-opacity:1" cx="346.564" cy="341.108" r="25.818"/><circle style="fill:url(#B);fill-rule:evenodd;stroke:none;stroke-width:.61939;stroke-linecap:round;stroke-linejoin:round;paint-order:stroke fill markers;stop-color:#000;fill-opacity:1" cx="415.109" cy="507.524" r="44"/><circle style="fill:url(#C);fill-rule:evenodd;stroke:none;stroke-width:.61939;stroke-linecap:round;stroke-linejoin:round;paint-order:stroke fill markers;stop-color:#000;fill-opacity:1" cx="623.195" cy="508.58" r="44"/><path style="fill:#d45500" d="M344.016 493.234a72.49 72.49 0 0 0-.123.635 72.49 72.49 0 0 1 .123-.635zM693.535 490.928a72.49 72.49 0 0 1 .108.437 72.49 72.49 0 0 0-.108-.437zM344.647 490.37a72.49 72.49 0 0 0-.323 1.394 72.49 72.49 0 0 1 .323-1.395zM344.963 489.111a72.49 72.49 0 0 0-.145.563 72.49 72.49 0 0 1 .145-.563z"/><path d="M359.176 283.687c-3.988-.457-8.115-.603-12.129-.603h-.072c-42.177.029-80.303 25.12-97.012 63.846-65.447 86.157-97.462 168.649-101.545 233.207-2.06 32.567 2.977 60.728 15.254 82.355 12.277 21.627 32.288 36.352 57.406 40.62 48.204 8.188 83.85-12.572 107.43-44.032 20.258-27.028 32.933-61.618 42.08-94.482a72.49 72.49 0 0 0 110.902-28.086l48.67-.715 26.047.35c11.21 27.109 37.653 44.79 66.988 44.79a72.49 72.49 0 0 0 44.905-15.585c9.149 32.893 21.829 67.524 42.107 94.58 23.58 31.46 59.226 52.22 107.43 44.03 25.118-4.266 45.13-18.991 57.406-40.618 12.277-21.627 17.314-49.789 15.254-82.356-4.12-65.133-41.335-155.076-107.967-242.066l.016.144c-18.376-34.458-54.248-55.982-93.3-55.982h-.071c-12.162.006-15.043 1.239-17.08 1.135l-23.32.342c-96.702.184-192.71.036-289.392-.86m-12.136 14.346c50.131 0 90.77 40.64 90.771 90.771a90.773 90.773 0 0 1-12.959 46.743 72.489 72.489 0 0 0-9.75-.659h-.03c-29.282.013-55.68 17.64-66.913 44.682-.373.005-.746.008-1.12.008-50.132 0-90.773-40.64-90.773-90.773.001-50.133 40.642-90.772 90.774-90.772zm342 0c50.131 0 90.77 40.64 90.771 90.771 0 49.88-40.248 90.415-90.127 90.77l.106.248c-11.437-26.622-37.627-43.876-66.602-43.877h-.03a72.523 72.523 0 0 0-11.157.867 90.773 90.773 0 0 1-13.734-48.008c0-50.132 40.64-90.771 90.773-90.771zm-60.15 3.812a105.735 105.735 0 0 0-31.895 138.998c-27.905 10.814-46.296 37.664-46.297 67.59 0 3.557.263 7.109.785 10.627l-21.342-.287-43.556.64a72.49 72.49 0 0 0 1.006-12.036c-.001-30.553-19.16-57.826-47.9-68.19a73.482 73.482 0 0 0 .257.092 105.735 105.735 0 0 0-32.709-137.4l114.625 1.54zm65.513 11.584c-14.807 0-26.811 12.005-26.81 26.813 0 14.807 12.003 26.81 26.81 26.81 14.808.001 26.812-12.002 26.813-26.81 0-14.809-12.004-26.813-26.813-26.813zm-347.847.721c-14.808 0-26.812 12.005-26.811 26.813 0 14.806 12.004 26.81 26.81 26.81 14.808 0 26.813-12.003 26.813-26.81 0-14.809-12.004-26.814-26.812-26.813zm347.724 4.244h.123c12.067 0 21.849 9.781 21.848 21.848 0 12.066-9.782 21.846-21.848 21.846-12.065 0-21.845-9.781-21.845-21.846-.001-12.018 9.705-21.78 21.722-21.848zm-347.848.72h.124c12.066 0 21.848 9.782 21.847 21.849 0 12.065-9.782 21.846-21.847 21.845-12.065 0-21.846-9.78-21.846-21.845-.001-12.018 9.705-21.78 21.723-21.848zm-51.992 36.579c-14.807 0-26.81 12.005-26.81 26.813 0 14.806 12.003 26.81 26.81 26.81 14.808 0 26.812-12.003 26.813-26.81 0-14.809-12.004-26.814-26.813-26.813zm100.782 2c-14.808 0-26.812 12.005-26.811 26.813 0 14.806 12.004 26.81 26.81 26.81 14.808 0 26.813-12.003 26.813-26.81 0-14.809-12.004-26.814-26.812-26.813zm251.066 1.28c-14.808 0-26.811 12.004-26.81 26.812 0 14.807 12.003 26.81 26.81 26.81 14.808.001 26.812-12.003 26.812-26.81.001-14.809-12.004-26.813-26.812-26.813zm92.781 0c-14.807 0-26.811 12.004-26.81 26.812 0 14.807 12.003 26.81 26.81 26.81 14.808.001 26.812-12.003 26.813-26.81 0-14.809-12.004-26.813-26.813-26.813zm-444.752 1.685h.123c12.067 0 21.849 9.781 21.848 21.848 0 12.065-9.782 21.846-21.848 21.845-12.065 0-21.845-9.78-21.845-21.845-.001-12.018 9.705-21.78 21.722-21.848zm100.781 2h.124c12.066 0 21.848 9.781 21.847 21.848 0 12.065-9.782 21.846-21.847 21.845-12.065 0-21.846-9.78-21.846-21.845-.001-12.018 9.705-21.78 21.723-21.848zm251.067 1.28h.123c12.066-.002 21.848 9.78 21.848 21.847 0 12.066-9.782 21.846-21.848 21.846-12.065 0-21.845-9.781-21.846-21.846 0-12.018 9.705-21.78 21.723-21.848zm92.781 0h.123c12.067-.002 21.849 9.78 21.848 21.847 0 12.066-9.782 21.846-21.848 21.846-12.065 0-21.845-9.781-21.845-21.846-.001-12.018 9.705-21.78 21.722-21.848zm55.826 24.618c49.376 72.98 73.348 141.274 76.659 193.612 1.892 29.915-2.967 54.46-12.829 71.832-9.861 17.372-24.233 27.937-44.136 31.318-41.84 7.107-68.387-9.042-89.143-36.734-19.97-26.643-32.904-64.385-42.043-99.608a72.49 72.49 0 0 0 11.027-54.566c56.28-2.808 100.468-49.257 100.467-105.606 0-.082 0-.165-.002-.248zm-553.433 3c1.458 56.039 46.397 101.2 102.427 102.934a72.49 72.49 0 0 0 11.58 53.924c-9.135 35.14-22.053 72.748-41.968 99.318-20.756 27.693-47.303 43.842-89.143 36.734-19.903-3.38-34.275-13.946-44.137-31.318-9.861-17.372-14.72-41.917-12.828-71.832 3.253-51.415 26.442-118.23 74.069-189.76zm105.217 6.766c-14.808 0-26.812 12.005-26.811 26.812 0 14.807 12.004 26.81 26.81 26.811 14.808 0 26.813-12.003 26.813-26.81 0-14.809-12.004-26.814-26.812-26.813zm-.124 4.965h.124c12.066-.001 21.848 9.781 21.847 21.847 0 12.066-9.782 21.847-21.847 21.846-12.065 0-21.846-9.78-21.846-21.846-.001-12.017 9.705-21.78 21.723-21.847zm347.971.314c-14.807 0-26.811 12.005-26.81 26.813 0 14.807 12.003 26.81 26.81 26.81 14.808 0 26.812-12.003 26.813-26.81 0-14.809-12.004-26.813-26.813-26.813zm-.123 4.965h.123c12.067 0 21.849 9.781 21.848 21.848 0 12.065-9.782 21.846-21.848 21.845-12.065 0-21.845-9.78-21.845-21.845-.001-12.018 9.705-21.78 21.722-21.848zm-269.021 27.037zm2.193.346zm1.291.234zm2.018.416zm180.205.383zm-178.08.121a71.614 71.614 0 0 1 1.345.356 70.841 70.841 0 0 1-1.345-.356zm3.41.953zm168.453.274zm-166.41.385zm-23.237 11.068c31.808 0 57.594 25.786 57.594 57.594s-25.785 57.595-57.594 57.595c-31.81 0-57.596-25.786-57.595-57.595 0-31.81 25.787-57.595 57.595-57.594zm208.086 1.057c31.808 0 57.594 25.785 57.594 57.593 0 31.809-25.785 57.595-57.594 57.596-31.81 0-57.596-25.786-57.595-57.596 0-31.808 25.787-57.594 57.595-57.593zM415.11 462.707c-24.678 0-44.684 20.005-44.685 44.684 0 24.679 20.006 44.685 44.685 44.685 24.68 0 44.686-20.006 44.686-44.685-.001-24.679-20.007-44.684-44.686-44.684zm208.086 1.057c-24.678 0-44.684 20.005-44.685 44.683 0 24.68 20.006 44.686 44.685 44.686 24.68 0 44.686-20.007 44.686-44.686-.001-24.678-20.007-44.683-44.686-44.683zm-208.086 3.908c21.936 0 39.718 17.783 39.72 39.719 0 21.936-17.783 39.72-39.72 39.72-21.937 0-39.72-17.783-39.72-39.72 0-21.937 17.784-39.72 39.72-39.72zm208.086 1.057c21.936 0 39.718 17.783 39.72 39.718 0 21.937-17.783 39.72-39.72 39.721-21.937 0-39.72-17.784-39.72-39.72 0-21.937 17.784-39.72 39.72-39.72zm-275.818 12.835zm345.59 7.225zm-348.004.322zm-.316 1.258zm348.888.559zm-349.52 2.306z"/></svg>